<svg width="122" height="27" viewBox="0 0 122 27" fill="none" xmlns="http://www.w3.org/2000/svg">
<path d="M4.528 5.216C3.808 5.216 3.216 5.008 2.752 4.592C2.304 4.16 2.08 3.632 2.08 3.008C2.08 2.368 2.304 1.84 2.752 1.424C3.216 0.991999 3.808 0.775999 4.528 0.775999C5.232 0.775999 5.808 0.991999 6.256 1.424C6.72 1.84 6.952 2.368 6.952 3.008C6.952 3.632 6.72 4.16 6.256 4.592C5.808 5.008 5.232 5.216 4.528 5.216ZM6.592 21.728C6.592 23.376 6.176 24.56 5.344 25.28C4.512 26.016 3.352 26.384 1.864 26.384H0.256V22.904H1.24C1.688 22.904 2.008 22.816 2.2 22.64C2.392 22.464 2.488 22.176 2.488 21.776V6.608H6.592V21.728ZM22.1667 13.088C22.1667 13.472 22.1427 13.872 22.0947 14.288H12.8067C12.8707 15.12 13.1347 15.76 13.5987 16.208C14.0787 16.64 14.6627 16.856 15.3507 16.856C16.3747 16.856 17.0867 16.424 17.4867 15.56H21.8547C21.6307 16.44 21.2227 17.232 20.6307 17.936C20.0547 18.64 19.3267 19.192 18.4467 19.592C17.5667 19.992 16.5827 20.192 15.4947 20.192C14.1827 20.192 13.0147 19.912 11.9907 19.352C10.9667 18.792 10.1667 17.992 9.59069 16.952C9.01469 15.912 8.72669 14.696 8.72669 13.304C8.72669 11.912 9.00669 10.696 9.56669 9.656C10.1427 8.616 10.9427 7.816 11.9667 7.256C12.9907 6.696 14.1667 6.416 15.4947 6.416C16.7907 6.416 17.9427 6.688 18.9507 7.232C19.9587 7.776 20.7427 8.552 21.3027 9.56C21.8787 10.568 22.1667 11.744 22.1667 13.088ZM17.9667 12.008C17.9667 11.304 17.7267 10.744 17.2467 10.328C16.7667 9.912 16.1667 9.704 15.4467 9.704C14.7587 9.704 14.1747 9.904 13.6947 10.304C13.2307 10.704 12.9427 11.272 12.8307 12.008H17.9667ZM31.7958 16.52V20H29.7078C28.2198 20 27.0598 19.64 26.2278 18.92C25.3958 18.184 24.9798 16.992 24.9798 15.344V10.016H23.3478V6.608H24.9798V3.344H29.0838V6.608H31.7718V10.016H29.0838V15.392C29.0838 15.792 29.1798 16.08 29.3718 16.256C29.5638 16.432 29.8838 16.52 30.3318 16.52H31.7958ZM39.5298 20.192C38.3618 20.192 37.3218 19.992 36.4098 19.592C35.4978 19.192 34.7778 18.648 34.2498 17.96C33.7218 17.256 33.4258 16.472 33.3618 15.608H37.4178C37.4658 16.072 37.6818 16.448 38.0658 16.736C38.4498 17.024 38.9218 17.168 39.4818 17.168C39.9938 17.168 40.3858 17.072 40.6578 16.88C40.9458 16.672 41.0898 16.408 41.0898 16.088C41.0898 15.704 40.8898 15.424 40.4898 15.248C40.0898 15.056 39.4418 14.848 38.5458 14.624C37.5858 14.4 36.7858 14.168 36.1458 13.928C35.5058 13.672 34.9538 13.28 34.4898 12.752C34.0258 12.208 33.7938 11.48 33.7938 10.568C33.7938 9.8 34.0018 9.104 34.4178 8.48C34.8498 7.84 35.4738 7.336 36.2898 6.968C37.1218 6.6 38.1058 6.416 39.2418 6.416C40.9218 6.416 42.2418 6.832 43.2018 7.664C44.1778 8.496 44.7378 9.6 44.8818 10.976H41.0898C41.0258 10.512 40.8178 10.144 40.4658 9.872C40.1298 9.6 39.6818 9.464 39.1218 9.464C38.6418 9.464 38.2738 9.56 38.0178 9.752C37.7618 9.928 37.6338 10.176 37.6338 10.496C37.6338 10.88 37.8338 11.168 38.2338 11.36C38.6498 11.552 39.2898 11.744 40.1538 11.936C41.1458 12.192 41.9538 12.448 42.5778 12.704C43.2018 12.944 43.7458 13.344 44.2098 13.904C44.6898 14.448 44.9378 15.184 44.9538 16.112C44.9538 16.896 44.7298 17.6 44.2818 18.224C43.8498 18.832 43.2178 19.312 42.3858 19.664C41.5698 20.016 40.6178 20.192 39.5298 20.192ZM54.9286 16.52V20H52.8406C51.3526 20 50.1926 19.64 49.3606 18.92C48.5286 18.184 48.1126 16.992 48.1126 15.344V10.016H46.4806V6.608H48.1126V3.344H52.2166V6.608H54.9046V10.016H52.2166V15.392C52.2166 15.792 52.3126 16.08 52.5046 16.256C52.6966 16.432 53.0166 16.52 53.4646 16.52H54.9286ZM61.3186 8.84C61.7986 8.104 62.3986 7.528 63.1186 7.112C63.8386 6.68 64.6386 6.464 65.5186 6.464V10.808H64.3906C63.3666 10.808 62.5986 11.032 62.0866 11.48C61.5746 11.912 61.3186 12.68 61.3186 13.784V20H57.2146V6.608H61.3186V8.84ZM80.1042 13.088C80.1042 13.472 80.0802 13.872 80.0322 14.288H70.7442C70.8082 15.12 71.0722 15.76 71.5362 16.208C72.0162 16.64 72.6002 16.856 73.2882 16.856C74.3122 16.856 75.0242 16.424 75.4242 15.56H79.7922C79.5682 16.44 79.1602 17.232 78.5682 17.936C77.9922 18.64 77.2642 19.192 76.3842 19.592C75.5042 19.992 74.5202 20.192 73.4322 20.192C72.1202 20.192 70.9522 19.912 69.9282 19.352C68.9042 18.792 68.1042 17.992 67.5282 16.952C66.9522 15.912 66.6642 14.696 66.6642 13.304C66.6642 11.912 66.9442 10.696 67.5042 9.656C68.0802 8.616 68.8802 7.816 69.9042 7.256C70.9282 6.696 72.1042 6.416 73.4322 6.416C74.7282 6.416 75.8802 6.688 76.8882 7.232C77.8962 7.776 78.6802 8.552 79.2402 9.56C79.8162 10.568 80.1042 11.744 80.1042 13.088ZM75.9042 12.008C75.9042 11.304 75.6642 10.744 75.1842 10.328C74.7042 9.912 74.1042 9.704 73.3842 9.704C72.6962 9.704 72.1122 9.904 71.6322 10.304C71.1682 10.704 70.8802 11.272 70.7682 12.008H75.9042ZM81.4533 13.28C81.4533 11.904 81.7093 10.696 82.2213 9.656C82.7493 8.616 83.4613 7.816 84.3573 7.256C85.2533 6.696 86.2533 6.416 87.3573 6.416C88.3013 6.416 89.1253 6.608 89.8293 6.992C90.5493 7.376 91.1013 7.88 91.4853 8.504V6.608H95.5893V20H91.4853V18.104C91.0853 18.728 90.5253 19.232 89.8053 19.616C89.1013 20 88.2773 20.192 87.3333 20.192C86.2453 20.192 85.2533 19.912 84.3573 19.352C83.4613 18.776 82.7493 17.968 82.2213 16.928C81.7093 15.872 81.4533 14.656 81.4533 13.28ZM91.4853 13.304C91.4853 12.28 91.1973 11.472 90.6213 10.88C90.0613 10.288 89.3733 9.992 88.5573 9.992C87.7413 9.992 87.0453 10.288 86.4693 10.88C85.9093 11.456 85.6293 12.256 85.6293 13.28C85.6293 14.304 85.9093 15.12 86.4693 15.728C87.0453 16.32 87.7413 16.616 88.5573 16.616C89.3733 16.616 90.0613 16.32 90.6213 15.728C91.1973 15.136 91.4853 14.328 91.4853 13.304ZM115.646 6.464C117.31 6.464 118.63 6.968 119.606 7.976C120.598 8.984 121.094 10.384 121.094 12.176V20H117.014V12.728C117.014 11.864 116.782 11.2 116.318 10.736C115.87 10.256 115.246 10.016 114.446 10.016C113.646 10.016 113.014 10.256 112.55 10.736C112.102 11.2 111.878 11.864 111.878 12.728V20H107.798V12.728C107.798 11.864 107.566 11.2 107.102 10.736C106.654 10.256 106.03 10.016 105.23 10.016C104.43 10.016 103.798 10.256 103.334 10.736C102.886 11.2 102.662 11.864 102.662 12.728V20H98.5583V6.608H102.662V8.288C103.078 7.728 103.622 7.288 104.294 6.968C104.966 6.632 105.726 6.464 106.574 6.464C107.582 6.464 108.478 6.68 109.262 7.112C110.062 7.544 110.686 8.16 111.134 8.96C111.598 8.224 112.23 7.624 113.03 7.16C113.83 6.696 114.702 6.464 115.646 6.464Z" fill="#EBDCE7"/>
</svg>
