<svg width="177" height="38" viewBox="0 0 177 38" fill="none" xmlns="http://www.w3.org/2000/svg">
<path d="M7.35 23.356H8.88C10.036 23.356 11.0673 23.1747 11.974 22.812C12.8807 22.4493 13.64 21.9507 14.252 21.316C14.8867 20.6813 15.3627 19.9333 15.68 19.072C16.02 18.188 16.19 17.2247 16.19 16.182C16.19 15.162 16.02 14.21 15.68 13.326C15.34 12.442 14.8527 11.6827 14.218 11.048C13.606 10.4133 12.8467 9.91467 11.94 9.552C11.0333 9.18933 10.0133 9.008 8.88 9.008H7.35V23.356ZM0.686 3.364H10.546C12.2913 3.364 13.9233 3.71533 15.442 4.418C16.9833 5.12067 18.3207 6.06133 19.454 7.24C20.61 8.396 21.5167 9.756 22.174 11.32C22.8313 12.8613 23.16 14.482 23.16 16.182C23.16 17.8593 22.8313 19.48 22.174 21.044C21.5393 22.5853 20.644 23.9453 19.488 25.124C18.3547 26.3027 17.0173 27.2433 15.476 27.946C13.9573 28.6487 12.314 29 10.546 29H0.686V3.364ZM36.5865 17.746C36.3825 16.8847 35.9632 16.1933 35.3285 15.672C34.6938 15.1507 33.9232 14.89 33.0165 14.89C32.0645 14.89 31.2825 15.1393 30.6705 15.638C30.0812 16.1367 29.7072 16.8393 29.5485 17.746H36.5865ZM29.3785 21.316C29.3785 23.968 30.6252 25.294 33.1185 25.294C34.4558 25.294 35.4645 24.75 36.1445 23.662H42.0945C40.8932 27.6513 37.8898 29.646 33.0845 29.646C31.6112 29.646 30.2625 29.4307 29.0385 29C27.8145 28.5467 26.7605 27.912 25.8765 27.096C25.0152 26.28 24.3465 25.3053 23.8705 24.172C23.3945 23.0387 23.1565 21.7693 23.1565 20.364C23.1565 18.9133 23.3832 17.61 23.8365 16.454C24.2898 15.2753 24.9358 14.278 25.7745 13.462C26.6132 12.646 27.6218 12.0227 28.8005 11.592C30.0018 11.1387 31.3505 10.912 32.8465 10.912C34.3198 10.912 35.6458 11.1387 36.8245 11.592C38.0032 12.0227 39.0005 12.6573 39.8165 13.496C40.6325 14.3347 41.2558 15.366 41.6865 16.59C42.1172 17.7913 42.3325 19.1513 42.3325 20.67V21.316H29.3785ZM55.6002 17.746C55.3962 16.8847 54.9769 16.1933 54.3422 15.672C53.7075 15.1507 52.9369 14.89 52.0302 14.89C51.0782 14.89 50.2962 15.1393 49.6842 15.638C49.0949 16.1367 48.7209 16.8393 48.5622 17.746H55.6002ZM48.3922 21.316C48.3922 23.968 49.6389 25.294 52.1322 25.294C53.4695 25.294 54.4782 24.75 55.1582 23.662H61.1082C59.9069 27.6513 56.9035 29.646 52.0982 29.646C50.6249 29.646 49.2762 29.4307 48.0522 29C46.8282 28.5467 45.7742 27.912 44.8902 27.096C44.0289 26.28 43.3602 25.3053 42.8842 24.172C42.4082 23.0387 42.1702 21.7693 42.1702 20.364C42.1702 18.9133 42.3969 17.61 42.8502 16.454C43.3035 15.2753 43.9495 14.278 44.7882 13.462C45.6269 12.646 46.6355 12.0227 47.8142 11.592C49.0155 11.1387 50.3642 10.912 51.8602 10.912C53.3335 10.912 54.6595 11.1387 55.8382 11.592C57.0169 12.0227 58.0142 12.6573 58.8302 13.496C59.6462 14.3347 60.2695 15.366 60.7002 16.59C61.1309 17.7913 61.3462 19.1513 61.3462 20.67V21.316H48.3922ZM75.7699 20.33C75.7699 19.786 75.6679 19.276 75.4639 18.8C75.2825 18.3013 75.0105 17.8707 74.6479 17.508C74.2852 17.1453 73.8545 16.862 73.3559 16.658C72.8799 16.4313 72.3585 16.318 71.7919 16.318C71.2479 16.318 70.7379 16.42 70.2619 16.624C69.7859 16.828 69.3665 17.1113 69.0039 17.474C68.6639 17.8367 68.3805 18.2673 68.1539 18.766C67.9499 19.242 67.8479 19.752 67.8479 20.296C67.8479 20.84 67.9499 21.35 68.1539 21.826C68.3579 22.302 68.6412 22.7213 69.0039 23.084C69.3665 23.424 69.7859 23.7073 70.2619 23.934C70.7605 24.138 71.2819 24.24 71.8259 24.24C72.3699 24.24 72.8799 24.138 73.3559 23.934C73.8319 23.73 74.2399 23.4467 74.5799 23.084C74.9425 22.7213 75.2259 22.302 75.4299 21.826C75.6565 21.35 75.7699 20.8513 75.7699 20.33ZM68.0179 37.704H61.8639V11.558H68.0179V13.496C69.3325 11.8413 71.1232 11.014 73.3899 11.014C74.6365 11.014 75.7925 11.2633 76.8579 11.762C77.9459 12.238 78.8865 12.8953 79.6799 13.734C80.4732 14.5727 81.0852 15.5587 81.5159 16.692C81.9692 17.8253 82.1959 19.038 82.1959 20.33C82.1959 21.622 81.9692 22.8233 81.5159 23.934C81.0852 25.0447 80.4732 26.0193 79.6799 26.858C78.9092 27.6967 77.9912 28.354 76.9259 28.83C75.8605 29.306 74.7045 29.544 73.4579 29.544C71.2819 29.544 69.4685 28.796 68.0179 27.3V37.704ZM97.3577 9.926C96.6324 9.33667 95.907 8.906 95.1817 8.634C94.4564 8.33933 93.7537 8.192 93.0737 8.192C92.2124 8.192 91.5097 8.396 90.9657 8.804C90.4217 9.212 90.1497 9.74467 90.1497 10.402C90.1497 10.8553 90.2857 11.2293 90.5577 11.524C90.8297 11.8187 91.181 12.0793 91.6117 12.306C92.065 12.51 92.5637 12.6913 93.1077 12.85C93.6744 13.0087 94.2297 13.1787 94.7737 13.36C96.9497 14.0853 98.5364 15.06 99.5337 16.284C100.554 17.4853 101.064 19.0607 101.064 21.01C101.064 22.3247 100.837 23.5147 100.384 24.58C99.953 25.6453 99.307 26.5633 98.4457 27.334C97.607 28.082 96.5644 28.66 95.3177 29.068C94.0937 29.4987 92.6997 29.714 91.1357 29.714C87.8944 29.714 84.891 28.7507 82.1257 26.824L84.9817 21.452C85.979 22.336 86.965 22.9933 87.9397 23.424C88.9144 23.8547 89.8777 24.07 90.8297 24.07C91.9177 24.07 92.7224 23.8207 93.2437 23.322C93.7877 22.8233 94.0597 22.2567 94.0597 21.622C94.0597 21.2367 93.9917 20.908 93.8557 20.636C93.7197 20.3413 93.493 20.0807 93.1757 19.854C92.8584 19.6047 92.439 19.378 91.9177 19.174C91.419 18.97 90.807 18.7433 90.0817 18.494C89.2204 18.222 88.3704 17.9273 87.5317 17.61C86.7157 17.27 85.979 16.828 85.3217 16.284C84.687 15.74 84.1657 15.06 83.7577 14.244C83.3724 13.4053 83.1797 12.3513 83.1797 11.082C83.1797 9.81267 83.3837 8.668 83.7917 7.648C84.2224 6.60533 84.8117 5.72133 85.5597 4.996C86.3304 4.248 87.2597 3.67 88.3477 3.262C89.4584 2.854 90.6937 2.65 92.0537 2.65C93.323 2.65 94.649 2.83133 96.0317 3.194C97.4144 3.534 98.7404 4.044 100.01 4.724L97.3577 9.926ZM107.838 11.558V29H101.684V11.558H107.838ZM101.276 4.86C101.276 4.384 101.367 3.942 101.548 3.534C101.73 3.10333 101.979 2.72933 102.296 2.412C102.614 2.09466 102.976 1.84533 103.384 1.664C103.815 1.48267 104.268 1.392 104.744 1.392C105.22 1.392 105.662 1.48267 106.07 1.664C106.501 1.84533 106.875 2.09466 107.192 2.412C107.51 2.72933 107.759 3.10333 107.94 3.534C108.122 3.942 108.212 4.384 108.212 4.86C108.212 5.336 108.122 5.78933 107.94 6.22C107.759 6.628 107.51 6.99067 107.192 7.308C106.875 7.62533 106.501 7.87467 106.07 8.056C105.662 8.23733 105.22 8.328 104.744 8.328C104.268 8.328 103.815 8.23733 103.384 8.056C102.976 7.87467 102.614 7.62533 102.296 7.308C101.979 6.99067 101.73 6.628 101.548 6.22C101.367 5.78933 101.276 5.336 101.276 4.86ZM114.756 20.194C114.756 20.7607 114.858 21.2933 115.062 21.792C115.266 22.268 115.538 22.6873 115.878 23.05C116.24 23.4127 116.66 23.696 117.136 23.9C117.634 24.104 118.167 24.206 118.734 24.206C119.278 24.206 119.788 24.104 120.264 23.9C120.762 23.696 121.182 23.4127 121.522 23.05C121.884 22.6873 122.168 22.268 122.372 21.792C122.598 21.2933 122.712 20.772 122.712 20.228C122.712 19.6613 122.598 19.14 122.372 18.664C122.168 18.188 121.884 17.7687 121.522 17.406C121.159 17.0433 120.728 16.76 120.23 16.556C119.754 16.352 119.255 16.25 118.734 16.25C118.19 16.25 117.68 16.3633 117.204 16.59C116.728 16.794 116.308 17.0773 115.946 17.44C115.583 17.78 115.288 18.188 115.062 18.664C114.858 19.14 114.756 19.65 114.756 20.194ZM128.56 11.558V27.81C128.56 28.7847 128.503 29.6573 128.39 30.428C128.276 31.1987 128.118 31.8787 127.914 32.468C127.642 33.216 127.211 33.9073 126.622 34.542C126.055 35.1993 125.364 35.766 124.548 36.242C123.732 36.718 122.802 37.092 121.76 37.364C120.74 37.636 119.629 37.772 118.428 37.772C117.068 37.772 115.821 37.602 114.688 37.262C113.554 36.922 112.557 36.446 111.696 35.834C110.857 35.2447 110.166 34.542 109.622 33.726C109.078 32.9327 108.715 32.06 108.534 31.108H115.47C115.9 32.264 116.875 32.842 118.394 32.842C119.686 32.842 120.672 32.4793 121.352 31.754C122.054 31.0287 122.406 30.02 122.406 28.728V27.062C121.952 27.4927 121.51 27.8553 121.08 28.15C120.672 28.422 120.252 28.6487 119.822 28.83C119.391 29.0113 118.938 29.136 118.462 29.204C117.986 29.2947 117.464 29.34 116.898 29.34C115.651 29.34 114.506 29.1247 113.464 28.694C112.421 28.2633 111.514 27.6627 110.744 26.892C109.996 26.1213 109.406 25.2033 108.976 24.138C108.568 23.05 108.364 21.8487 108.364 20.534C108.364 19.1967 108.59 17.9613 109.044 16.828C109.497 15.672 110.109 14.6747 110.88 13.836C111.673 12.9747 112.602 12.306 113.668 11.83C114.756 11.3313 115.934 11.082 117.204 11.082C119.266 11.082 121 11.8527 122.406 13.394V11.558H128.56ZM129.751 11.558H135.905V13.768C136.743 12.748 137.593 12.068 138.455 11.728C139.316 11.3653 140.325 11.184 141.481 11.184C142.705 11.184 143.747 11.388 144.609 11.796C145.493 12.1813 146.241 12.7367 146.853 13.462C147.351 14.0513 147.691 14.7087 147.873 15.434C148.054 16.1593 148.145 16.9867 148.145 17.916V29H141.991V20.194C141.991 19.3327 141.923 18.6413 141.787 18.12C141.673 17.576 141.458 17.1453 141.141 16.828C140.869 16.556 140.563 16.3633 140.223 16.25C139.883 16.1367 139.52 16.08 139.135 16.08C138.092 16.08 137.287 16.3973 136.721 17.032C136.177 17.644 135.905 18.528 135.905 19.684V29H129.751V11.558ZM155.041 20.228C155.041 20.7947 155.143 21.3273 155.347 21.826C155.551 22.302 155.823 22.7213 156.163 23.084C156.525 23.4467 156.945 23.73 157.421 23.934C157.919 24.138 158.452 24.24 159.019 24.24C159.563 24.24 160.073 24.138 160.549 23.934C161.047 23.73 161.467 23.4467 161.807 23.084C162.169 22.7213 162.453 22.302 162.657 21.826C162.883 21.35 162.997 20.84 162.997 20.296C162.997 19.752 162.883 19.242 162.657 18.766C162.453 18.2673 162.169 17.8367 161.807 17.474C161.467 17.1113 161.047 16.828 160.549 16.624C160.073 16.42 159.563 16.318 159.019 16.318C158.452 16.318 157.919 16.42 157.421 16.624C156.945 16.828 156.525 17.1113 156.163 17.474C155.823 17.8367 155.551 18.256 155.347 18.732C155.143 19.1853 155.041 19.684 155.041 20.228ZM162.793 11.558H168.981V29H162.793V27.062C161.478 28.7167 159.699 29.544 157.455 29.544C156.185 29.544 155.018 29.3173 153.953 28.864C152.887 28.388 151.958 27.7307 151.165 26.892C150.371 26.0533 149.748 25.0673 149.295 23.934C148.864 22.8007 148.649 21.5653 148.649 20.228C148.649 18.9813 148.864 17.8027 149.295 16.692C149.725 15.5587 150.326 14.5727 151.097 13.734C151.867 12.8953 152.785 12.238 153.851 11.762C154.916 11.2633 156.095 11.014 157.387 11.014C159.563 11.014 161.365 11.7733 162.793 13.292V11.558ZM176.323 0.779999V29H170.169V0.779999H176.323Z" fill="white"/>
</svg>
