<svg width="208" height="61" viewBox="0 0 208 61" fill="none" xmlns="http://www.w3.org/2000/svg">
<path d="M14.232 29.2597L14.687 29.0056V24.5798L12.232 25.9368C10.632 26.8239 9.64697 28.459 9.64697 30.2331V47.1164C9.64697 48.8857 10.632 50.5256 12.232 51.4127L14.687 52.7697V48.3439L14.232 48.0897C13.872 47.8931 13.647 47.5191 13.647 47.1164V30.2331C13.647 29.8303 13.872 29.4563 14.232 29.2597ZM20.037 21.6165L16.842 23.3858V27.8164L18.842 26.7088L22.037 24.9394L26.312 22.5707V18.1449L20.037 21.6165ZM47.892 25.9368L43.287 23.3858L40.092 21.6165V26.0471L41.287 26.7088L45.897 29.2597C46.262 29.4659 46.482 29.8255 46.482 30.2331V47.1164C46.482 47.5143 46.257 47.8884 45.892 48.0897L41.287 50.6407L40.092 51.3024V55.733L43.287 53.9636L47.892 51.4127C49.497 50.5256 50.482 48.8857 50.482 47.1164V30.2331C50.482 28.459 49.497 26.8239 47.892 25.9368ZM30.482 56.6057L30.442 56.6153L30.402 56.6297C30.292 56.6632 30.177 56.6824 30.062 56.6824C29.952 56.6824 29.837 56.6632 29.732 56.6297L29.692 56.6153L29.647 56.6057C29.627 56.6009 29.562 56.5769 29.477 56.529L28.467 55.9679V60.2691C28.982 60.4321 29.522 60.5184 30.062 60.5184C30.602 60.5184 31.142 60.4321 31.662 60.2691C32.002 60.1684 32.337 60.0245 32.652 59.8519L37.937 56.9269V52.4964L30.667 56.5194C30.567 56.5769 30.502 56.6009 30.482 56.6057ZM32.652 17.4976C32.337 17.3201 32.002 17.1811 31.662 17.0756C31.142 16.9126 30.602 16.8311 30.062 16.8311C29.522 16.8311 28.982 16.9126 28.467 17.0756V21.3815L29.477 20.8205L29.492 20.8109L29.502 20.8061C29.532 20.7869 29.592 20.7582 29.717 20.7198C29.827 20.6862 29.942 20.6671 30.062 20.6671C30.182 20.6671 30.302 20.6862 30.432 20.7246C30.537 20.7582 30.597 20.7869 30.627 20.8061L30.637 20.8109L30.652 20.8205L37.937 24.8531V20.4225L32.652 17.4976ZM22.037 52.4101L18.842 50.6407L16.842 49.533V53.9636L20.037 55.733L26.312 59.2046V54.7788L22.037 52.4101Z" fill="url(#paint0_linear_113_502)"/>
<path d="M22.187 11.5518C22.187 12.9903 21.307 14.2274 20.037 14.8028V55.7331L16.842 53.9637V14.8028C15.572 14.2274 14.687 12.9903 14.687 11.5518C14.687 9.56669 16.367 7.95557 18.437 7.95557C20.512 7.95557 22.187 9.56669 22.187 11.5518Z" fill="url(#paint1_linear_113_502)"/>
<path d="M45.437 11.5518C45.437 12.9903 44.557 14.2274 43.287 14.8028V53.9637L40.092 55.7331V14.8028C38.822 14.2274 37.937 12.9903 37.937 11.5518C37.937 9.56669 39.617 7.95557 41.687 7.95557C43.762 7.95557 45.437 9.56669 45.437 11.5518Z" fill="url(#paint2_linear_113_502)"/>
<path d="M33.812 4.11481C33.812 5.54852 32.932 6.78564 31.662 7.36104V60.2692C30.622 60.6001 29.502 60.6001 28.467 60.2692V7.36104C27.197 6.78564 26.312 5.54852 26.312 4.11481C26.312 2.12488 27.992 0.518555 30.062 0.518555C32.137 0.518555 33.812 2.12488 33.812 4.11481Z" fill="url(#paint3_linear_113_502)"/>
<path d="M68.925 30.8351C68.925 29.1351 69.3167 27.6101 70.1 26.2601C70.9 24.9101 71.975 23.8601 73.325 23.1101C74.6917 22.3434 76.1833 21.9601 77.8 21.9601C79.65 21.9601 81.2917 22.4184 82.725 23.3351C84.175 24.2351 85.225 25.5184 85.875 27.1851H82.45C82 26.2684 81.375 25.5851 80.575 25.1351C79.775 24.6851 78.85 24.4601 77.8 24.4601C76.65 24.4601 75.625 24.7184 74.725 25.2351C73.825 25.7517 73.1167 26.4934 72.6 27.4601C72.1 28.4267 71.85 29.5517 71.85 30.8351C71.85 32.1184 72.1 33.2434 72.6 34.2101C73.1167 35.1767 73.825 35.9267 74.725 36.4601C75.625 36.9767 76.65 37.2351 77.8 37.2351C78.85 37.2351 79.775 37.0101 80.575 36.5601C81.375 36.1101 82 35.4267 82.45 34.5101H85.875C85.225 36.1767 84.175 37.4601 82.725 38.3601C81.2917 39.2601 79.65 39.7101 77.8 39.7101C76.1667 39.7101 74.675 39.3351 73.325 38.5851C71.975 37.8184 70.9 36.7601 70.1 35.4101C69.3167 34.0601 68.925 32.5351 68.925 30.8351ZM92.0609 21.0601V39.5601H89.2109V21.0601H92.0609ZM97.2527 23.9601C96.7361 23.9601 96.3027 23.7851 95.9527 23.4351C95.6027 23.0851 95.4277 22.6517 95.4277 22.1351C95.4277 21.6184 95.6027 21.1851 95.9527 20.8351C96.3027 20.4851 96.7361 20.3101 97.2527 20.3101C97.7527 20.3101 98.1777 20.4851 98.5277 20.8351C98.8777 21.1851 99.0527 21.6184 99.0527 22.1351C99.0527 22.6517 98.8777 23.0851 98.5277 23.4351C98.1777 23.7851 97.7527 23.9601 97.2527 23.9601ZM98.6527 25.7851V39.5601H95.8027V25.7851H98.6527ZM101.445 32.6601C101.445 31.2434 101.728 30.0017 102.295 28.9351C102.878 27.8517 103.678 27.0184 104.695 26.4351C105.711 25.8517 106.878 25.5601 108.195 25.5601C109.861 25.5601 111.236 25.9601 112.32 26.7601C113.42 27.5434 114.161 28.6684 114.545 30.1351H111.47C111.22 29.4517 110.82 28.9184 110.27 28.5351C109.72 28.1517 109.028 27.9601 108.195 27.9601C107.028 27.9601 106.095 28.3767 105.395 29.2101C104.711 30.0267 104.37 31.1767 104.37 32.6601C104.37 34.1434 104.711 35.3017 105.395 36.1351C106.095 36.9684 107.028 37.3851 108.195 37.3851C109.845 37.3851 110.936 36.6601 111.47 35.2101H114.545C114.145 36.6101 113.395 37.7267 112.295 38.5601C111.195 39.3767 109.828 39.7851 108.195 39.7851C106.878 39.7851 105.711 39.4934 104.695 38.9101C103.678 38.3101 102.878 37.4767 102.295 36.4101C101.728 35.3267 101.445 34.0767 101.445 32.6601ZM122.835 32.6851L129.185 39.5601H125.335L120.235 33.6351V39.5601H117.385V21.0601H120.235V31.8101L125.235 25.7851H129.185L122.835 32.6851ZM145.103 22.1851V39.5601H142.253V31.9601H134.078V39.5601H131.228V22.1851H134.078V29.6351H142.253V22.1851H145.103ZM154.829 39.7851C153.529 39.7851 152.354 39.4934 151.304 38.9101C150.254 38.3101 149.429 37.4767 148.829 36.4101C148.229 35.3267 147.929 34.0767 147.929 32.6601C147.929 31.2601 148.238 30.0184 148.854 28.9351C149.471 27.8517 150.313 27.0184 151.379 26.4351C152.446 25.8517 153.638 25.5601 154.954 25.5601C156.271 25.5601 157.463 25.8517 158.529 26.4351C159.596 27.0184 160.438 27.8517 161.054 28.9351C161.671 30.0184 161.979 31.2601 161.979 32.6601C161.979 34.0601 161.663 35.3017 161.029 36.3851C160.396 37.4684 159.529 38.3101 158.429 38.9101C157.346 39.4934 156.146 39.7851 154.829 39.7851ZM154.829 37.3101C155.563 37.3101 156.246 37.1351 156.879 36.7851C157.529 36.4351 158.054 35.9101 158.454 35.2101C158.854 34.5101 159.054 33.6601 159.054 32.6601C159.054 31.6601 158.863 30.8184 158.479 30.1351C158.096 29.4351 157.588 28.9101 156.954 28.5601C156.321 28.2101 155.638 28.0351 154.904 28.0351C154.171 28.0351 153.488 28.2101 152.854 28.5601C152.238 28.9101 151.746 29.4351 151.379 30.1351C151.013 30.8184 150.829 31.6601 150.829 32.6601C150.829 34.1434 151.204 35.2934 151.954 36.1101C152.721 36.9101 153.679 37.3101 154.829 37.3101ZM177.272 25.7851V39.5601H174.422V37.9351C173.972 38.5017 173.38 38.9517 172.647 39.2851C171.93 39.6017 171.164 39.7601 170.347 39.7601C169.264 39.7601 168.289 39.5351 167.422 39.0851C166.572 38.6351 165.897 37.9684 165.397 37.0851C164.914 36.2017 164.672 35.1351 164.672 33.8851V25.7851H167.497V33.4601C167.497 34.6934 167.805 35.6434 168.422 36.3101C169.039 36.9601 169.88 37.2851 170.947 37.2851C172.014 37.2851 172.855 36.9601 173.472 36.3101C174.105 35.6434 174.422 34.6934 174.422 33.4601V25.7851H177.272ZM186.032 39.7851C184.949 39.7851 183.974 39.5934 183.107 39.2101C182.257 38.8101 181.582 38.2767 181.082 37.6101C180.582 36.9267 180.316 36.1684 180.282 35.3351H183.232C183.282 35.9184 183.557 36.4101 184.057 36.8101C184.574 37.1934 185.216 37.3851 185.982 37.3851C186.782 37.3851 187.399 37.2351 187.832 36.9351C188.282 36.6184 188.507 36.2184 188.507 35.7351C188.507 35.2184 188.257 34.8351 187.757 34.5851C187.274 34.3351 186.499 34.0601 185.432 33.7601C184.399 33.4767 183.557 33.2017 182.907 32.9351C182.257 32.6684 181.691 32.2601 181.207 31.7101C180.741 31.1601 180.507 30.4351 180.507 29.5351C180.507 28.8017 180.724 28.1351 181.157 27.5351C181.591 26.9184 182.207 26.4351 183.007 26.0851C183.824 25.7351 184.757 25.5601 185.807 25.5601C187.374 25.5601 188.632 25.9601 189.582 26.7601C190.549 27.5434 191.066 28.6184 191.132 29.9851H188.282C188.232 29.3684 187.982 28.8767 187.532 28.5101C187.082 28.1434 186.474 27.9601 185.707 27.9601C184.957 27.9601 184.382 28.1017 183.982 28.3851C183.582 28.6684 183.382 29.0434 183.382 29.5101C183.382 29.8767 183.516 30.1851 183.782 30.4351C184.049 30.6851 184.374 30.8851 184.757 31.0351C185.141 31.1684 185.707 31.3434 186.457 31.5601C187.457 31.8267 188.274 32.1017 188.907 32.3851C189.557 32.6517 190.116 33.0517 190.582 33.5851C191.049 34.1184 191.291 34.8267 191.307 35.7101C191.307 36.4934 191.091 37.1934 190.657 37.8101C190.224 38.4267 189.607 38.9101 188.807 39.2601C188.024 39.6101 187.099 39.7851 186.032 39.7851ZM207.012 32.3351C207.012 32.8517 206.978 33.3184 206.912 33.7351H196.387C196.47 34.8351 196.878 35.7184 197.612 36.3851C198.345 37.0517 199.245 37.3851 200.312 37.3851C201.845 37.3851 202.928 36.7434 203.562 35.4601H206.637C206.22 36.7267 205.462 37.7684 204.362 38.5851C203.278 39.3851 201.928 39.7851 200.312 39.7851C198.995 39.7851 197.812 39.4934 196.762 38.9101C195.728 38.3101 194.912 37.4767 194.312 36.4101C193.728 35.3267 193.437 34.0767 193.437 32.6601C193.437 31.2434 193.72 30.0017 194.287 28.9351C194.87 27.8517 195.678 27.0184 196.712 26.4351C197.762 25.8517 198.962 25.5601 200.312 25.5601C201.612 25.5601 202.77 25.8434 203.787 26.4101C204.803 26.9767 205.595 27.7767 206.162 28.8101C206.728 29.8267 207.012 31.0017 207.012 32.3351ZM204.037 31.4351C204.02 30.3851 203.645 29.5434 202.912 28.9101C202.178 28.2767 201.27 27.9601 200.187 27.9601C199.203 27.9601 198.362 28.2767 197.662 28.9101C196.962 29.5267 196.545 30.3684 196.412 31.4351H204.037Z" fill="url(#paint4_linear_113_502)"/>
<defs>
<linearGradient id="paint0_linear_113_502" x1="30.0644" y1="14.2419" x2="30.0644" y2="65.3928" gradientUnits="userSpaceOnUse">
<stop stop-color="#C4D6FF"/>
<stop offset="1" stop-color="white"/>
</linearGradient>
<linearGradient id="paint1_linear_113_502" x1="18.4369" y1="56.6596" x2="18.4369" y2="9.94075" gradientUnits="userSpaceOnUse">
<stop stop-color="#DC003E"/>
<stop offset="1" stop-color="#FF6D98"/>
</linearGradient>
<linearGradient id="paint2_linear_113_502" x1="41.6869" y1="56.6596" x2="41.6869" y2="9.94075" gradientUnits="userSpaceOnUse">
<stop stop-color="#0900FB"/>
<stop offset="1" stop-color="#00C3FF"/>
</linearGradient>
<linearGradient id="paint3_linear_113_502" x1="30.0619" y1="59.9322" x2="30.0619" y2="1.73371" gradientUnits="userSpaceOnUse">
<stop stop-color="#F7A000"/>
<stop offset="1" stop-color="#FFE115"/>
</linearGradient>
<linearGradient id="paint4_linear_113_502" x1="138" y1="9.308" x2="138" y2="53.7999" gradientUnits="userSpaceOnUse">
<stop stop-color="#C4D6FF"/>
<stop offset="1" stop-color="white"/>
</linearGradient>
</defs>
</svg>
