<svg width="61" height="60" viewBox="0 0 61 60" fill="none" xmlns="http://www.w3.org/2000/svg">
<path d="M31.3003 14.2319L31.5545 14.6869L35.9803 14.6869L34.6233 12.2319C33.7362 10.6319 32.1011 9.64694 30.3269 9.64694L13.4437 9.64694C11.6743 9.64694 10.0345 10.6319 9.14738 12.2319L7.79038 14.6869L12.2162 14.6869L12.4703 14.2319C12.6669 13.8719 13.0409 13.6469 13.4437 13.6469L30.3269 13.6469C30.7297 13.6469 31.1037 13.8719 31.3003 14.2319ZM38.9436 20.0369L37.1742 16.8419L32.7436 16.8419L33.8513 18.8419L35.6206 22.0369L37.9894 26.3119L42.4152 26.3119L38.9436 20.0369ZM34.6233 47.8919L37.1742 43.2869L38.9436 40.0919L34.513 40.0919L33.8513 41.2869L31.3003 45.8969C31.0941 46.2619 30.7345 46.4819 30.3269 46.4819L13.4437 46.4819C13.0457 46.4819 12.6717 46.2569 12.4703 45.8919L9.91936 41.2869L9.25765 40.0919L4.82706 40.0919L6.59643 43.2869L9.14738 47.8919C10.0345 49.4969 11.6743 50.4819 13.4437 50.4819L30.3269 50.4819C32.1011 50.4819 33.7362 49.4969 34.6233 47.8919ZM3.95437 30.4819L3.94479 30.4419L3.9304 30.4019C3.89683 30.2919 3.87765 30.1769 3.87765 30.0619C3.87765 29.9519 3.89683 29.8369 3.9304 29.7319L3.94479 29.6919L3.95437 29.6469C3.95916 29.6269 3.98314 29.5619 4.03109 29.4769L4.59211 28.4669L0.290988 28.4669C0.127956 28.9819 0.0416366 29.5219 0.0416365 30.0619C0.0416365 30.6019 0.127955 31.1419 0.290988 31.6619C0.391681 32.0019 0.535529 32.3369 0.708152 32.6519L3.63311 37.9369L8.0637 37.9369L4.04069 30.6669C3.98315 30.5669 3.95916 30.5019 3.95437 30.4819ZM43.0625 32.6519C43.2399 32.3369 43.379 32.0019 43.4845 31.6619C43.6475 31.1419 43.729 30.6019 43.729 30.0619C43.729 29.5219 43.6475 28.9819 43.4845 28.4669L39.1785 28.4669L39.7395 29.4769L39.7491 29.4919L39.7539 29.5019C39.7731 29.5319 39.8019 29.5919 39.8402 29.7169C39.8738 29.8269 39.893 29.9419 39.893 30.0619C39.893 30.1819 39.8738 30.3019 39.8355 30.4319C39.8019 30.5369 39.7731 30.5969 39.7539 30.6269L39.7491 30.6369L39.7395 30.6519L35.7069 37.9369L40.1375 37.9369L43.0625 32.6519ZM8.15 22.0369L9.91936 18.8419L11.027 16.8419L6.59643 16.8419L4.82706 20.0369L1.35548 26.3119L5.78127 26.3119L8.15 22.0369Z" fill="#E6EAF5"/>
<path d="M49.0083 22.1869C47.5698 22.1869 46.3327 21.3069 45.7573 20.0369L4.82705 20.0369L6.59641 16.8419L45.7573 16.8419C46.3327 15.5719 47.5698 14.6869 49.0083 14.6869C50.9934 14.6869 52.6046 16.3669 52.6046 18.4369C52.6046 20.5119 50.9934 22.1869 49.0083 22.1869Z" fill="url(#paint0_linear_117_581)"/>
<path d="M49.0083 45.437C47.5698 45.437 46.3327 44.557 45.7573 43.287L6.59641 43.287L4.82705 40.092L45.7573 40.092C46.3327 38.822 47.5698 37.937 49.0083 37.937C50.9934 37.937 52.6046 39.617 52.6046 41.687C52.6046 43.762 50.9934 45.437 49.0083 45.437Z" fill="url(#paint1_linear_117_581)"/>
<path d="M56.4454 33.812C55.0117 33.812 53.7745 32.932 53.1991 31.662L0.290973 31.662C-0.039879 30.622 -0.039879 29.502 0.290974 28.467L53.1991 28.467C53.7745 27.197 55.0117 26.312 56.4454 26.312C58.4353 26.312 60.0416 27.992 60.0416 30.062C60.0416 32.137 58.4353 33.812 56.4454 33.812Z" fill="url(#paint2_linear_117_581)"/>
<circle cx="49.0028" cy="18.4369" r="1.97647" fill="black"/>
<circle cx="56.6425" cy="30" r="1.97647" fill="black"/>
<circle cx="49.0028" cy="41.6869" r="1.97647" fill="black"/>
<defs>
<linearGradient id="paint0_linear_117_581" x1="3.90055" y1="18.4369" x2="50.6194" y2="18.4369" gradientUnits="userSpaceOnUse">
<stop stop-color="#650492"/>
<stop offset="1" stop-color="#CE65FF"/>
</linearGradient>
<linearGradient id="paint1_linear_117_581" x1="3.90055" y1="41.6869" x2="50.6194" y2="41.6869" gradientUnits="userSpaceOnUse">
<stop stop-color="#0077AB"/>
<stop offset="1" stop-color="#4EC9FF"/>
</linearGradient>
<linearGradient id="paint2_linear_117_581" x1="0.628014" y1="30.0619" x2="58.8265" y2="30.0619" gradientUnits="userSpaceOnUse">
<stop stop-color="#D30024"/>
<stop offset="1" stop-color="#FF4F6D"/>
</linearGradient>
</defs>
</svg>
