<svg width="208" height="62" viewBox="0 0 208 62" fill="none" xmlns="http://www.w3.org/2000/svg">
<g clip-path="url(#clip0_234_3730)">
<mask id="mask0_234_3730" style="mask-type:luminance" maskUnits="userSpaceOnUse" x="17" y="22" width="28" height="33">
<path d="M38.343 39.2844V25.7479L44.7763 22.032V43.0003L24.0005 55L17.5669 51.2838L38.343 39.2844Z" fill="white"/>
</mask>
<g mask="url(#mask0_234_3730)">
<path d="M44.7763 22.032H17.5669V54.9997H44.7763V22.032Z" fill="white"/>
</g>
<mask id="mask1_234_3730" style="mask-type:luminance" maskUnits="userSpaceOnUse" x="3" y="7" width="40" height="42">
<path d="M9.65741 22.7159V28.8211L35.7183 13.7685L42.1519 17.4842L9.65741 36.2524V39.2841L12.3178 40.8205L33.0939 28.8211V36.2524L12.3178 48.2524L3.22412 43V19L24 7L30.4335 10.7159L9.65741 22.7159Z" fill="white"/>
</mask>
<g mask="url(#mask1_234_3730)">
<path d="M42.1519 7H3.22412V48.2524H42.1519V7Z" fill="white"/>
</g>
</g>
<path d="M77.8822 29.8579C78.9046 30.2614 79.8058 31.1761 80.586 32.602C81.3932 34.001 81.7564 35.5614 81.6756 37.2832C81.5949 39.57 80.7071 41.5609 79.0122 43.2558C77.3173 44.9508 74.7614 45.7982 71.3447 45.7982C70.2147 45.7982 69.0175 45.6234 67.753 45.2736C66.5155 44.897 65.4124 44.3185 64.4439 43.5383V39.3414C66.1388 40.7134 67.5109 41.5206 68.5602 41.7627C69.6363 42.0048 70.5107 42.1259 71.1833 42.1259C72.6091 42.1259 73.8467 41.682 74.8959 40.7942C75.9721 39.8794 76.5102 38.4805 76.5102 36.5972C76.5102 35.4134 76.2949 34.4853 75.8645 33.8127C75.4609 33.1132 75.0305 32.6289 74.5731 32.3599C74.1695 32.064 73.6853 31.8622 73.1203 31.7546C72.5822 31.62 71.95 31.5528 71.2236 31.5528C70.2551 31.5528 69.7708 30.9878 69.7708 29.8579C69.7977 28.701 70.43 28.1226 71.6675 28.1226C72.098 28.1226 72.4343 28.1226 72.6764 28.1226C72.9454 28.1226 73.1876 28.0957 73.4028 28.0419C74.1023 27.8535 74.748 27.3693 75.3399 26.5891C75.9317 25.8089 76.2546 24.7193 76.3084 23.3203C76.3891 21.8137 76.0259 20.6837 75.2188 19.9304C74.4386 19.1502 73.497 18.7601 72.3939 18.7601C71.6137 18.7601 70.9008 19.0157 70.2551 19.5269C69.6094 20.0112 69.152 20.9124 68.883 22.2307H64.565C64.8878 19.9439 65.7487 18.2086 67.1477 17.0249C68.5736 15.8411 70.3761 15.2492 72.5553 15.2492C75.2995 15.2492 77.4383 16.0025 78.9718 17.5091C80.5322 18.9888 81.3124 20.8855 81.3124 23.1992C81.3124 24.9749 80.9089 26.468 80.1018 27.6787C79.3216 28.8893 78.5817 29.6157 77.8822 29.8579ZM100.47 45.1122C100.82 45.731 101.371 46.2018 102.125 46.5246C103.228 47.0358 105.205 47.0492 108.057 46.565V49.3898C106.954 49.6858 106.093 49.8607 105.474 49.9145C104.855 49.9683 104.156 49.9952 103.376 49.9952C100.847 49.9952 98.7885 49.5378 97.2012 48.6231C95.9098 47.9236 94.874 46.7937 94.0938 45.2332C91.4034 44.7221 89.2242 43.3904 87.5562 41.2381C85.3232 38.3594 84.2067 34.7005 84.2067 30.2614C84.2067 25.8223 85.3098 22.1769 87.5159 19.3251C89.7489 16.4464 92.91 15.0071 96.9994 15.0071C101.089 15.0071 104.25 16.4464 106.483 19.3251C108.716 22.1769 109.832 25.8223 109.832 30.2614C109.832 34.7005 108.716 38.3594 106.483 41.2381C104.949 43.2289 102.945 44.5203 100.47 45.1122ZM89.4529 30.2614C89.4529 34.0279 90.1928 36.92 91.6725 38.9378C93.1522 40.9287 94.9278 41.9241 96.9994 41.9241C99.0709 41.9241 100.847 40.9287 102.326 38.9378C103.833 36.92 104.586 34.0279 104.586 30.2614C104.586 26.4949 103.833 23.6028 102.326 21.585C100.847 19.5672 99.0709 18.5584 96.9994 18.5584C94.9278 18.5584 93.1522 19.5672 91.6725 21.585C90.1928 23.6028 89.4529 26.4949 89.4529 30.2614ZM130.443 45.2736H125.439V43.2155L125.035 43.619C123.717 44.9104 122.022 45.5561 119.95 45.5561C118.094 45.5561 116.547 44.9104 115.309 43.619C114.072 42.3008 113.453 40.1888 113.453 37.2832V29.0508C113.453 28.2167 113.386 27.6652 113.251 27.3962C113.144 27.1271 113.023 26.9657 112.888 26.9119C112.458 26.7505 112.094 26.5891 111.798 26.4277C111.529 26.2393 111.395 25.903 111.395 25.4188C111.395 24.5579 111.96 24.1274 113.09 24.1274H116.722C117.879 24.1274 118.457 24.5713 118.457 25.4591V37.0411C118.457 38.9244 118.699 40.1888 119.184 40.8345C119.668 41.4533 120.26 41.7627 120.959 41.7627C122.251 41.7627 123.434 41.117 124.51 39.8256C124.86 39.3952 125.17 38.8302 125.439 38.1307V29.0911C125.439 28.2302 125.385 27.6652 125.277 27.3962C125.17 27.1271 124.968 26.9254 124.672 26.7909C124.268 26.6832 123.945 26.5353 123.703 26.3469C123.461 26.1586 123.34 25.8761 123.34 25.4995C123.34 24.5848 123.919 24.1274 125.075 24.1274H128.707C129.864 24.1274 130.443 24.6117 130.443 25.5802V45.2736ZM146.573 43.8612C146.224 44.1302 145.605 44.4799 144.717 44.9104C143.829 45.3409 142.578 45.5561 140.964 45.5561C139.054 45.5561 137.48 45.0046 136.243 43.9015C135.005 42.7716 134.386 41.3322 134.386 39.5835C134.386 37.216 135.435 35.3193 137.534 33.8934C139.659 32.4675 142.229 31.7546 145.242 31.7546H146.533V30.9071C146.533 29.6695 146.183 28.701 145.484 28.0015C144.784 27.2751 143.95 26.9119 142.982 26.9119C142.121 26.9119 141.381 27.1406 140.762 27.598C140.17 28.0553 139.875 28.9431 139.875 30.2614H134.628C134.628 28.136 135.395 26.4949 136.929 25.3381C138.462 24.1812 140.52 23.6028 143.103 23.6028C145.847 23.6028 147.932 24.2888 149.358 25.6609C150.811 27.0061 151.537 28.8221 151.537 31.1089V45.2736H146.573V43.8612ZM146.533 35.1848C144.354 35.131 142.619 35.4673 141.327 36.1937C140.036 36.92 139.39 37.9155 139.39 39.1799C139.39 40.2561 139.646 40.9959 140.157 41.3995C140.668 41.7761 141.247 41.9645 141.892 41.9645C143.022 41.9645 144.071 41.5475 145.04 40.7134C146.035 39.8794 146.533 38.8706 146.533 37.6868V35.1848ZM161.05 45.2736H156.126V29.0911C156.126 28.2302 156.073 27.6787 155.965 27.4365C155.884 27.1675 155.736 26.9926 155.521 26.9119C155.037 26.7236 154.647 26.5487 154.351 26.3873C154.055 26.2259 153.907 25.903 153.907 25.4188C153.907 24.5579 154.472 24.1274 155.602 24.1274H159.314C160.471 24.1274 161.05 24.6117 161.05 25.5802V26.3066C161.346 25.9837 161.695 25.6744 162.099 25.3784C163.363 24.3292 164.884 23.8046 166.659 23.8046C168.596 23.8046 170.157 24.4637 171.34 25.782C172.551 27.1002 173.156 29.3198 173.156 32.4406V45.2736H168.152V32.3599C168.152 30.4766 167.91 29.2256 167.426 28.6068C166.942 27.9612 166.404 27.6383 165.812 27.6383C164.601 27.6652 163.404 28.432 162.22 29.9386C161.763 30.5305 161.373 31.203 161.05 31.9563V45.2736ZM183.597 15.9353V24.1274H189.045V27.3962H183.637V39.9063C183.637 40.8749 183.799 41.5071 184.122 41.803C184.471 42.099 184.996 42.247 185.696 42.247C186.072 42.247 186.435 42.247 186.785 42.247C187.162 42.22 188.036 42.0317 189.408 41.682V45.0718C188.494 45.3678 187.606 45.5426 186.745 45.5964C185.911 45.6503 185.265 45.6772 184.808 45.6772C183.436 45.6772 182.306 45.5292 181.418 45.2332C180.53 44.9104 179.898 44.453 179.521 43.8612C179.091 43.3231 178.835 42.6505 178.754 41.8434C178.701 41.0094 178.674 40.1485 178.674 39.2607V27.3962H175.768V24.1274H178.674V21.02L183.597 15.9353ZM197.791 35.7901C195.827 35.1175 194.24 34.27 193.029 33.2477C191.845 32.1985 191.253 30.934 191.253 29.4543C191.253 27.6518 191.899 26.2124 193.19 25.1363C194.482 24.0332 196.392 23.4414 198.921 23.3607C200.024 23.3068 201.113 23.401 202.19 23.6431C203.293 23.8584 204.369 24.2216 205.418 24.7327V29.6157C203.858 28.2706 202.593 27.45 201.625 27.1541C200.683 26.8312 199.836 26.6832 199.082 26.7101C198.194 26.7101 197.481 26.8985 196.943 27.2751C196.432 27.6518 196.15 28.2302 196.096 29.0104C196.069 29.683 196.446 30.3018 197.226 30.8667C198.033 31.4048 199.163 31.9563 200.616 32.5213C202.795 33.3284 204.355 34.2431 205.297 35.2655C206.266 36.2878 206.75 37.485 206.75 38.8571C206.75 40.9287 205.996 42.5698 204.49 43.7805C203.01 44.9642 200.925 45.5561 198.235 45.5561C196.917 45.5561 195.679 45.3812 194.522 45.0315C193.392 44.6548 192.545 44.2109 191.98 43.6997C191.388 43.1886 191.078 42.7312 191.052 42.3277C191.025 41.8972 191.105 41.534 191.294 41.2381C191.697 40.6731 192.208 40.3772 192.827 40.3503C193.446 40.2964 194.024 40.5117 194.562 40.9959C195.047 41.3457 195.639 41.6416 196.338 41.8838C197.038 42.099 197.67 42.2066 198.235 42.2066C199.553 42.1528 200.508 41.803 201.1 41.1574C201.719 40.5117 201.947 39.718 201.786 38.7764C201.732 38.319 201.436 37.8348 200.898 37.3236C200.36 36.8124 199.324 36.3013 197.791 35.7901Z" fill="white"/>
<defs>
<clipPath id="clip0_234_3730">
<rect width="48" height="48" fill="white" transform="translate(0 7)"/>
</clipPath>
</defs>
</svg>
