<svg width="221" height="62" viewBox="0 0 221 62" fill="none" xmlns="http://www.w3.org/2000/svg">
<g clip-path="url(#clip0_230_525)">
<mask id="mask0_230_525" style="mask-type:luminance" maskUnits="userSpaceOnUse" x="17" y="22" width="28" height="33">
<path d="M38.343 39.2843V25.7479L44.7763 22.0319V43.0003L24.0005 55L17.5669 51.2838L38.343 39.2843Z" fill="white"/>
</mask>
<g mask="url(#mask0_230_525)">
<path d="M44.7763 22.0319H17.5669V54.9997H44.7763V22.0319Z" fill="url(#paint0_linear_230_525)"/>
</g>
<mask id="mask1_230_525" style="mask-type:luminance" maskUnits="userSpaceOnUse" x="3" y="7" width="40" height="42">
<path d="M9.65741 22.7159V28.8211L35.7183 13.7685L42.1519 17.4842L9.65741 36.2524V39.2841L12.3178 40.8205L33.0939 28.8211V36.2524L12.3178 48.2524L3.22412 43V19L24 7L30.4335 10.7159L9.65741 22.7159Z" fill="white"/>
</mask>
<g mask="url(#mask1_230_525)">
<path d="M42.1519 7H3.22412V48.2524H42.1519V7Z" fill="url(#paint1_linear_230_525)"/>
</g>
<mask id="mask2_230_525" style="mask-type:luminance" maskUnits="userSpaceOnUse" x="15" y="14" width="26" height="16">
<path d="M20.7682 29.1334L40.9366 17.4842L35.7182 14.47L15.5498 26.1193L20.7682 29.1334Z" fill="white"/>
</mask>
<g mask="url(#mask2_230_525)">
<path d="M40.9369 14.47H15.5498V29.1331H40.9369V14.47Z" fill="url(#paint2_linear_230_525)"/>
</g>
<mask id="mask3_230_525" style="mask-type:luminance" maskUnits="userSpaceOnUse" x="27" y="29" width="6" height="7">
<path d="M32.4857 35.9011V29.8737L27.2676 32.8875L32.4857 35.9011Z" fill="white"/>
</mask>
<g mask="url(#mask3_230_525)">
<path d="M32.4857 29.8737H27.2676V35.9014H32.4857V29.8737Z" fill="url(#paint3_linear_230_525)"/>
</g>
<mask id="mask4_230_525" style="mask-type:luminance" maskUnits="userSpaceOnUse" x="3" y="7" width="27" height="16">
<path d="M29.2186 10.7159L23.9999 7.70181L3.83154 19.3505L3.83183 19.3511L9.04966 22.3649L29.2186 10.7159Z" fill="white"/>
</mask>
<g mask="url(#mask4_230_525)">
<path d="M29.2186 7.70181H3.83154V22.3649H29.2186V7.70181Z" fill="url(#paint4_linear_230_525)"/>
</g>
<mask id="mask5_230_525" style="mask-type:luminance" maskUnits="userSpaceOnUse" x="38" y="23" width="7" height="20">
<path d="M44.1685 42.649V23.0851L38.9507 26.0984V39.6351L44.1685 42.649Z" fill="white"/>
</mask>
<g mask="url(#mask5_230_525)">
<path d="M44.1685 23.0851H38.9507V42.649H44.1685V23.0851Z" fill="url(#paint5_linear_230_525)"/>
</g>
</g>
<path d="M77.8822 29.8579C78.9046 30.2614 79.8058 31.1761 80.586 32.602C81.3932 34.001 81.7564 35.5614 81.6756 37.2832C81.5949 39.57 80.7071 41.5609 79.0122 43.2558C77.3173 44.9508 74.7614 45.7982 71.3447 45.7982C70.2147 45.7982 69.0175 45.6234 67.753 45.2736C66.5155 44.897 65.4124 44.3185 64.4439 43.5383V39.3414C66.1388 40.7134 67.5109 41.5206 68.5602 41.7627C69.6363 42.0048 70.5107 42.1259 71.1833 42.1259C72.6091 42.1259 73.8467 41.682 74.8959 40.7942C75.9721 39.8794 76.5102 38.4805 76.5102 36.5972C76.5102 35.4134 76.2949 34.4853 75.8645 33.8127C75.4609 33.1132 75.0305 32.6289 74.5731 32.3599C74.1695 32.064 73.6853 31.8622 73.1203 31.7546C72.5822 31.62 71.95 31.5528 71.2236 31.5528C70.2551 31.5528 69.7708 30.9878 69.7708 29.8579C69.7977 28.701 70.43 28.1226 71.6675 28.1226C72.098 28.1226 72.4343 28.1226 72.6764 28.1226C72.9454 28.1226 73.1876 28.0957 73.4028 28.0419C74.1023 27.8535 74.748 27.3693 75.3399 26.5891C75.9317 25.8089 76.2546 24.7193 76.3084 23.3203C76.3891 21.8137 76.0259 20.6837 75.2188 19.9304C74.4386 19.1502 73.497 18.7601 72.3939 18.7601C71.6137 18.7601 70.9008 19.0157 70.2551 19.5269C69.6094 20.0112 69.152 20.9124 68.883 22.2307H64.565C64.8878 19.9439 65.7487 18.2086 67.1477 17.0249C68.5736 15.8411 70.3761 15.2492 72.5553 15.2492C75.2995 15.2492 77.4383 16.0025 78.9718 17.5091C80.5322 18.9888 81.3124 20.8855 81.3124 23.1992C81.3124 24.9749 80.9089 26.468 80.1018 27.6787C79.3216 28.8893 78.5817 29.6157 77.8822 29.8579ZM93.0849 24.3695C93.0849 25.2574 92.7755 26.0107 92.1567 26.6294C91.538 27.2482 90.7847 27.5576 89.8968 27.5576C88.9821 27.5576 88.2154 27.2482 87.5966 26.6294C86.9778 26.0107 86.6684 25.2574 86.6684 24.3695C86.6684 23.4817 86.9778 22.7284 87.5966 22.1096C88.2154 21.4909 88.9821 21.1815 89.8968 21.1815C90.7847 21.1815 91.538 21.4909 92.1567 22.1096C92.7755 22.7284 93.0849 23.4817 93.0849 24.3695ZM93.0849 39.4221C93.0849 40.3099 92.7755 41.0632 92.1567 41.682C91.538 42.3008 90.7847 42.6102 89.8968 42.6102C88.9821 42.6102 88.2154 42.3008 87.5966 41.682C86.9778 41.0632 86.6684 40.3099 86.6684 39.4221C86.6684 38.5343 86.9778 37.781 87.5966 37.1622C88.2154 36.5434 88.9821 36.234 89.8968 36.234C90.7847 36.234 91.538 36.5434 92.1567 37.1622C92.7755 37.781 93.0849 38.5343 93.0849 39.4221ZM113.736 45.1122C114.085 45.731 114.637 46.2018 115.39 46.5246C116.493 47.0358 118.471 47.0492 121.322 46.565V49.3898C120.219 49.6858 119.358 49.8607 118.74 49.9145C118.121 49.9683 117.421 49.9952 116.641 49.9952C114.112 49.9952 112.054 49.5378 110.467 48.6231C109.175 47.9236 108.14 46.7937 107.359 45.2332C104.669 44.7221 102.49 43.3904 100.822 41.2381C98.5888 38.3594 97.4723 34.7005 97.4723 30.2614C97.4723 25.8223 98.5754 22.1769 100.781 19.3251C103.014 16.4464 106.176 15.0071 110.265 15.0071C114.354 15.0071 117.515 16.4464 119.748 19.3251C121.981 22.1769 123.098 25.8223 123.098 30.2614C123.098 34.7005 121.981 38.3594 119.748 41.2381C118.215 43.2289 116.211 44.5203 113.736 45.1122ZM102.719 30.2614C102.719 34.0279 103.458 36.92 104.938 38.9378C106.418 40.9287 108.193 41.9241 110.265 41.9241C112.337 41.9241 114.112 40.9287 115.592 38.9378C117.098 36.92 117.852 34.0279 117.852 30.2614C117.852 26.4949 117.098 23.6028 115.592 21.585C114.112 19.5672 112.337 18.5584 110.265 18.5584C108.193 18.5584 106.418 19.5672 104.938 21.585C103.458 23.6028 102.719 26.4949 102.719 30.2614ZM143.708 45.2736H138.704V43.2155L138.301 43.619C136.982 44.9104 135.287 45.5561 133.216 45.5561C131.36 45.5561 129.813 44.9104 128.575 43.619C127.337 42.3008 126.719 40.1888 126.719 37.2832V29.0508C126.719 28.2167 126.651 27.6652 126.517 27.3962C126.409 27.1271 126.288 26.9657 126.154 26.9119C125.723 26.7505 125.36 26.5891 125.064 26.4277C124.795 26.2393 124.661 25.903 124.661 25.4188C124.661 24.5579 125.226 24.1274 126.355 24.1274H129.987C131.144 24.1274 131.723 24.5713 131.723 25.4591V37.0411C131.723 38.9244 131.965 40.1888 132.449 40.8345C132.933 41.4533 133.525 41.7627 134.225 41.7627C135.516 41.7627 136.7 41.117 137.776 39.8256C138.126 39.3952 138.435 38.8302 138.704 38.1307V29.0911C138.704 28.2302 138.65 27.6652 138.543 27.3962C138.435 27.1271 138.233 26.9254 137.937 26.7909C137.534 26.6832 137.211 26.5353 136.969 26.3469C136.727 26.1586 136.606 25.8761 136.606 25.4995C136.606 24.5848 137.184 24.1274 138.341 24.1274H141.973C143.13 24.1274 143.708 24.6117 143.708 25.5802V45.2736ZM159.839 43.8612C159.489 44.1302 158.871 44.4799 157.983 44.9104C157.095 45.3409 155.844 45.5561 154.23 45.5561C152.32 45.5561 150.746 45.0046 149.508 43.9015C148.271 42.7716 147.652 41.3322 147.652 39.5835C147.652 37.216 148.701 35.3193 150.8 33.8934C152.925 32.4675 155.494 31.7546 158.507 31.7546H159.799V30.9071C159.799 29.6695 159.449 28.701 158.75 28.0015C158.05 27.2751 157.216 26.9119 156.247 26.9119C155.387 26.9119 154.647 27.1406 154.028 27.598C153.436 28.0553 153.14 28.9431 153.14 30.2614H147.894C147.894 28.136 148.661 26.4949 150.194 25.3381C151.728 24.1812 153.786 23.6028 156.369 23.6028C159.113 23.6028 161.198 24.2888 162.624 25.6609C164.076 27.0061 164.803 28.8221 164.803 31.1089V45.2736H159.839V43.8612ZM159.799 35.1848C157.62 35.131 155.884 35.4673 154.593 36.1937C153.302 36.92 152.656 37.9155 152.656 39.1799C152.656 40.2561 152.911 40.9959 153.423 41.3995C153.934 41.7761 154.512 41.9645 155.158 41.9645C156.288 41.9645 157.337 41.5475 158.306 40.7134C159.301 39.8794 159.799 38.8706 159.799 37.6868V35.1848ZM174.315 45.2736H169.392V29.0911C169.392 28.2302 169.338 27.6787 169.231 27.4365C169.15 27.1675 169.002 26.9926 168.787 26.9119C168.302 26.7236 167.912 26.5487 167.616 26.3873C167.32 26.2259 167.172 25.903 167.172 25.4188C167.172 24.5579 167.737 24.1274 168.867 24.1274H172.58C173.737 24.1274 174.315 24.6117 174.315 25.5802V26.3066C174.611 25.9837 174.961 25.6744 175.365 25.3784C176.629 24.3292 178.149 23.8046 179.925 23.8046C181.862 23.8046 183.422 24.4637 184.606 25.782C185.817 27.1002 186.422 29.3198 186.422 32.4406V45.2736H181.418V32.3599C181.418 30.4766 181.176 29.2256 180.692 28.6068C180.207 27.9612 179.669 27.6383 179.077 27.6383C177.867 27.6652 176.669 28.432 175.486 29.9386C175.028 30.5305 174.638 31.203 174.315 31.9563V45.2736ZM196.863 15.9353V24.1274H202.311V27.3962H196.903V39.9063C196.903 40.8749 197.064 41.5071 197.387 41.803C197.737 42.099 198.262 42.247 198.961 42.247C199.338 42.247 199.701 42.247 200.051 42.247C200.427 42.22 201.302 42.0317 202.674 41.682V45.0718C201.759 45.3678 200.871 45.5426 200.01 45.5964C199.176 45.6503 198.531 45.6772 198.073 45.6772C196.701 45.6772 195.571 45.5292 194.684 45.2332C193.796 44.9104 193.163 44.453 192.787 43.8612C192.356 43.3231 192.101 42.6505 192.02 41.8434C191.966 41.0094 191.939 40.1485 191.939 39.2607V27.3962H189.034V24.1274H191.939V21.02L196.863 15.9353ZM211.057 35.7901C209.093 35.1175 207.505 34.27 206.295 33.2477C205.111 32.1985 204.519 30.934 204.519 29.4543C204.519 27.6518 205.165 26.2124 206.456 25.1363C207.747 24.0332 209.658 23.4414 212.186 23.3607C213.289 23.3068 214.379 23.401 215.455 23.6431C216.558 23.8584 217.634 24.2216 218.684 24.7327V29.6157C217.123 28.2706 215.859 27.45 214.89 27.1541C213.949 26.8312 213.101 26.6832 212.348 26.7101C211.46 26.7101 210.747 26.8985 210.209 27.2751C209.698 27.6518 209.415 28.2302 209.362 29.0104C209.335 29.683 209.711 30.3018 210.492 30.8667C211.299 31.4048 212.429 31.9563 213.881 32.5213C216.061 33.3284 217.621 34.2431 218.563 35.2655C219.531 36.2878 220.015 37.485 220.015 38.8571C220.015 40.9287 219.262 42.5698 217.755 43.7805C216.276 44.9642 214.191 45.5561 211.5 45.5561C210.182 45.5561 208.945 45.3812 207.788 45.0315C206.658 44.6548 205.81 44.2109 205.245 43.6997C204.653 43.1886 204.344 42.7312 204.317 42.3277C204.29 41.8972 204.371 41.534 204.559 41.2381C204.963 40.6731 205.474 40.3772 206.093 40.3503C206.712 40.2964 207.29 40.5117 207.828 40.9959C208.312 41.3457 208.904 41.6416 209.604 41.8838C210.303 42.099 210.935 42.2066 211.5 42.2066C212.819 42.1528 213.774 41.803 214.366 41.1574C214.984 40.5117 215.213 39.718 215.052 38.7764C214.998 38.319 214.702 37.8348 214.164 37.3236C213.626 36.8124 212.59 36.3013 211.057 35.7901Z" fill="white"/>
<defs>
<linearGradient id="paint0_linear_230_525" x1="-4.27361" y1="81.4639" x2="104.673" y2="51.4901" gradientUnits="userSpaceOnUse">
<stop stop-color="#8F4DD7"/>
<stop offset="1" stop-color="#02157F"/>
</linearGradient>
<linearGradient id="paint1_linear_230_525" x1="-28.0225" y1="81.3669" x2="124.546" y2="33.3744" gradientUnits="userSpaceOnUse">
<stop stop-color="#8F4DD7"/>
<stop offset="1" stop-color="#02157F"/>
</linearGradient>
<linearGradient id="paint2_linear_230_525" x1="-4.82794" y1="40.9036" x2="77.1948" y2="-6.43544" gradientUnits="userSpaceOnUse">
<stop stop-color="#BB7CFF"/>
<stop offset="1" stop-color="#6F1DFE"/>
</linearGradient>
<linearGradient id="paint3_linear_230_525" x1="23.0791" y1="40.74" x2="43.8262" y2="34.7529" gradientUnits="userSpaceOnUse">
<stop stop-color="#BB7CFF"/>
<stop offset="1" stop-color="#6F1DFE"/>
</linearGradient>
<linearGradient id="paint4_linear_230_525" x1="-16.5462" y1="34.1354" x2="65.4766" y2="-13.2037" gradientUnits="userSpaceOnUse">
<stop stop-color="#BB7CFF"/>
<stop offset="1" stop-color="#6F1DFE"/>
</linearGradient>
<linearGradient id="paint5_linear_230_525" x1="34.7624" y1="58.3535" x2="57.0598" y2="56.3711" gradientUnits="userSpaceOnUse">
<stop stop-color="#BB7CFF"/>
<stop offset="1" stop-color="#6F1DFE"/>
</linearGradient>
<clipPath id="clip0_230_525">
<rect width="48" height="48" fill="white" transform="translate(0 7)"/>
</clipPath>
</defs>
</svg>
