<svg width="1680" height="858" viewBox="0 0 1680 858" fill="none" xmlns="http://www.w3.org/2000/svg">
<path opacity="0.1" fill-rule="evenodd" clip-rule="evenodd" d="M1763.53 1.88661C1764.3 1.96351 1764.87 2.65001 1764.81 3.42765C1764.74 4.22713 1764.03 4.81601 1763.23 4.73662C1639.23 -7.5948 1502.97 40.531 1358.44 147.938C1312.99 181.578 1268.96 218.755 1226.57 254.541L1225.96 255.05C1191.76 283.91 1157.03 313.188 1121.12 341.118C1154.48 315.935 1186.97 289.836 1218.98 264.12L1221.68 261.952L1223.06 260.849L1223.06 260.847C1267.11 225.487 1312.55 189.008 1359.16 155.793C1400.54 126.039 1441.69 100.57 1481.17 80.1001C1588.15 24.2037 1689.24 1.06658 1782.33 10.6886C1783.1 10.7684 1783.66 11.4526 1783.6 12.2268C1783.53 13.0289 1782.82 13.6179 1782.02 13.5327C1689.65 3.6985 1588.83 26.836 1482.84 82.2424C1443.36 102.713 1402.45 128.182 1361.06 157.935C1314.45 191.151 1269.01 227.632 1224.96 262.992L1224.96 262.994L1223.59 264.095L1218.61 268.075C1170.77 306.389 1121.94 345.487 1070.71 381.151C1121.55 346.533 1170.51 309.068 1218.44 272.39L1218.44 272.389L1220.26 270.997C1266.16 235.77 1313.73 199.352 1362.01 166.028C1405.54 136.037 1448.35 110.33 1489.26 89.3833C1600.51 32.2933 1705.41 8.91624 1800.89 19.7215C1801.66 19.8084 1802.21 20.4912 1802.15 21.2618C1802.08 22.0684 1801.36 22.6595 1800.56 22.5702C1705.58 12.0268 1601.43 35.4038 1490.69 91.7636C1450.02 112.472 1407.2 138.179 1363.68 168.17C1315.39 201.494 1267.83 237.912 1221.92 273.14C1175.91 308.495 1128.96 344.534 1080.25 378.085C1127.53 346.32 1173.42 312.619 1218.43 279.561L1219.07 279.09C1266.16 244.339 1315.16 208.635 1364.63 175.549C1410.77 144.843 1454.3 119.375 1497.11 98.1903C1614.78 39.6673 1720.43 16.9933 1819.68 28.525C1820.45 28.614 1821 29.295 1820.94 30.0632C1820.87 30.8715 1820.15 31.4625 1819.34 31.3686C1720.59 19.8663 1615.69 42.5439 1498.54 100.809C1455.72 121.993 1412.44 147.224 1366.29 177.929C1316.82 211.015 1267.83 246.719 1220.73 281.471L1220.09 281.943C1138.94 341.541 1054.95 403.231 964.809 452.136C835.421 522.353 691.524 563.294 549.054 570.435C485.787 573.767 422.044 570.911 360.442 568.054C297.888 565.198 233.432 562.342 170.165 565.912C67.0438 571.369 -76.2442 599.052 -172.566 698.925C-173.09 699.468 -173.962 699.482 -174.496 698.948C-175.013 698.43 -175.018 697.591 -174.51 697.064C-77.4785 596.443 66.3145 568.751 169.927 563.056C233.432 559.486 297.888 562.342 360.442 565.198C422.044 568.054 485.787 570.911 548.816 567.578C662.474 561.682 776.893 534.506 884.059 488.115C780.938 531.662 670.942 556.633 560.947 561.152C495.301 563.77 428.942 559.723 364.723 555.677L361.486 555.476H361.485H361.484H361.483C301.125 551.728 238.758 547.856 177.539 549.726C72.045 553.048 -73.6169 578.36 -170.425 679.4C-170.949 679.946 -171.823 679.962 -172.357 679.427C-172.873 678.91 -172.879 678.073 -172.374 677.547C-74.8544 575.988 71.5517 550.43 177.539 547.108C240.092 544.966 303.597 549.012 364.961 553.059L367.307 553.207C430.563 557.209 496.1 561.355 560.709 558.533C688.173 553.28 815.637 520.381 932.462 462.949C819.687 517.31 696.65 547.82 572.601 551.631C504.941 553.761 436.575 548.121 370.545 542.673H370.545L370.543 542.673L369.48 542.586C309.067 537.587 246.752 532.588 185.149 533.303C77.5206 534.489 -70.9868 557.43 -168.285 659.638C-168.807 660.187 -169.684 660.204 -170.22 659.667C-170.734 659.153 -170.742 658.317 -170.24 657.79C-72.2313 555.058 77.0248 531.871 185.149 530.684C246.752 529.97 309.305 534.969 369.718 539.967L370.783 540.055C436.812 545.503 505.177 551.143 572.601 549.012C688.47 545.442 803.449 518.425 909.93 470.424C807.608 515.085 697.022 539.614 584.969 542.11C516.43 543.737 446.983 536.734 379.953 529.974L375.189 529.494L374.441 529.419L374.437 529.419C315.208 523.491 253.868 517.353 193.236 516.879C-4.92896 515.222 -111.166 582.505 -165.447 639.659C-165.97 640.209 -166.831 640.208 -167.368 639.671C-167.882 639.157 -167.907 638.34 -167.406 637.813C-112.671 580.172 -5.95079 512.365 193.474 514.022C253.845 514.494 314.918 520.582 374.141 526.486L375.664 526.638C444.164 533.541 515.28 540.681 585.207 539.015C734.336 535.683 880.85 493.314 1008.81 416.193C1084.71 370.383 1153.97 312.18 1221.07 255.781L1221.07 255.78L1224.78 252.669C1267.59 216.489 1311.83 179.357 1357.49 145.319C1502.04 37.8943 1638.8 -10.4658 1763.53 1.88661ZM1838.24 37.327C1839.01 37.4189 1839.56 38.0985 1839.49 38.8643C1839.43 39.6748 1838.7 40.2663 1837.89 40.1688C1736.75 27.957 1628.04 50.8736 1506.15 110.092C1461.91 131.514 1416.95 156.983 1368.91 188.164C1318.51 220.603 1268.82 255.634 1220.78 289.506L1220.02 290.039L1218.11 291.387C1132.6 351.665 1044.26 413.943 949.825 463.323C820.437 531.16 677.729 571.387 537.162 580.194C478.51 583.877 419.414 582.44 362.239 581.049H362.238H362.237H362.236H362.235H362.234C360.286 581.002 358.341 580.955 356.399 580.908C292.656 579.242 226.773 577.575 162.554 582.574C61.5684 590.166 -78.8743 619.983 -174.706 718.923C-175.231 719.465 -176.101 719.477 -176.634 718.944C-177.152 718.426 -177.156 717.585 -176.647 717.058C-80.1039 617.373 60.8415 587.31 162.554 579.718C227.01 574.719 293.132 576.385 356.874 578.051C358.818 578.099 360.765 578.146 362.713 578.193C419.889 579.583 478.978 581.02 537.4 577.337C677.729 568.768 819.961 528.542 949.111 460.943C1044.01 411.195 1132.97 348.594 1219.07 287.897L1219.82 287.366L1219.82 287.363L1219.83 287.357C1267.88 253.487 1317.57 218.459 1367.96 186.022C1416.24 154.841 1461.19 129.372 1505.67 107.711C1627.38 47.9958 1736.59 25.0824 1838.24 37.327ZM1858.28 47.6657C1858.35 46.9023 1857.8 46.2241 1857.04 46.1297C1752.77 33.1693 1640.21 56.0839 1512.81 116.518C1467.14 138.179 1420.52 164.124 1370.1 195.543C1323.49 224.699 1277.26 256.01 1232.32 286.454L1232.32 286.456C1227.73 289.565 1223.15 292.665 1218.59 295.752C1127.73 357.401 1033.55 421.192 933.889 471.654C804.977 537.111 663.696 576.623 525.27 586.62C467.473 590.667 409.201 590.429 352.831 589.953L349.5 589.941L346.74 589.93C283.458 589.692 218.07 589.446 154.467 595.904C-25.0311 613.417 -125.99 681.997 -179.273 736.594C-179.786 737.119 -179.766 737.946 -179.246 738.466C-178.715 738.998 -177.865 739.005 -177.34 738.467C-124.287 684.115 -23.8088 616.032 154.705 598.522C220.351 591.857 287.661 592.333 352.831 592.809C409.201 593.285 467.473 593.523 525.27 589.477C664.172 579.48 805.928 539.729 935.079 474.272C1032.49 425.065 1124.25 362.956 1213.22 302.733L1220.02 298.132C1269.25 264.571 1320.15 230.057 1371.53 197.923C1421.71 166.504 1468.33 140.797 1514 119.137C1640.88 58.9652 1753.15 36.0453 1856.68 48.9691C1857.49 49.0701 1858.22 48.4782 1858.28 47.6657ZM1875.47 55.1504C1876.28 55.2559 1876.84 56.0132 1876.7 56.8194C1876.58 57.5899 1875.86 58.1193 1875.09 58.018C1768.91 44.1213 1653.27 67.2762 1521.37 128.658C1474.51 150.556 1426.23 176.501 1373.67 208.396C1323.68 238.777 1274.13 271.131 1226.07 302.512L1226.07 302.513L1226.06 302.515L1220.02 306.463L1218.05 307.753L1218.04 307.754C1122.57 370.191 1024.03 434.635 919.618 485.697C790.944 548.774 650.139 588.049 512.902 599.236C458.039 603.732 402.941 604.464 349.478 605.174L348.55 605.187L347.7 605.199C281.368 606.147 212.931 607.125 146.38 615.184C7.82661 632.249 -105.02 681.887 -180.182 758.454C-180.707 758.99 -181.567 758.994 -182.098 758.463C-182.618 757.942 -182.625 757.101 -182.109 756.576C-106.474 679.518 6.85944 629.633 146.143 612.565C213.215 604.234 281.953 603.282 348.55 602.568L349.482 602.556H349.483C402.944 601.846 458.039 601.114 512.664 596.618C649.663 585.43 789.992 546.156 918.429 483.317C1023.32 431.903 1122.5 367.16 1218.59 304.321C1221.76 302.255 1224.93 300.183 1228.11 298.106L1228.53 297.833L1228.53 297.832C1275.4 267.22 1323.82 235.595 1372.24 206.254C1424.8 174.359 1473.09 148.176 1520.18 126.515C1652.76 64.4397 1768.84 41.2774 1875.47 55.1504ZM1895.49 65.6213C1895.63 64.817 1895.07 64.061 1894.27 63.9529C1785.25 49.3648 1665.36 72.5273 1528.03 135.084C1479.51 157.221 1429.56 183.642 1374.86 215.775C1327.89 243.423 1281.3 272.782 1235.77 301.474L1235.76 301.48L1235.76 301.485C1230.34 304.901 1224.93 308.307 1219.54 311.7L1218.88 312.117C1117.77 376.017 1013.33 442.014 903.445 494.028C775.722 554.487 636.582 593.047 500.771 605.663C449.876 610.569 398.522 612.265 348.96 613.901L346.171 613.993C277.91 616.136 207.031 618.516 138.532 628.751C2.56937 648.9 -108.86 699.975 -184.245 776.333C-184.763 776.857 -184.757 777.7 -184.236 778.221C-183.707 778.751 -182.849 778.748 -182.323 778.214C-107.645 702.344 3.5347 651.517 138.77 631.607C204.682 621.759 272.577 619.403 338.428 617.119L342.056 616.993L346.171 616.85C396.833 615.184 449.159 613.279 501.009 608.519C637.057 595.904 776.673 557.343 904.634 496.646C1014.76 444.631 1119.2 378.633 1220.31 314.733L1220.32 314.731L1220.97 314.318C1226.36 310.924 1231.77 307.517 1237.19 304.101L1237.19 304.098L1237.2 304.092L1237.21 304.085C1282.74 275.395 1329.32 246.039 1376.28 218.394C1430.99 186.26 1480.94 159.839 1529.22 137.941C1666.11 75.369 1785.31 52.2103 1893.87 66.8192C1894.65 66.9237 1895.37 66.3938 1895.49 65.6213ZM1912.82 72.7554C1913.63 72.8661 1914.18 73.6209 1914.05 74.4234C1913.92 75.1979 1913.2 75.7282 1912.42 75.6208C1801.47 60.3015 1678.47 83.6981 1536.83 146.986C1487.12 169.122 1435.51 195.781 1378.66 228.391C1328.14 257.542 1277.84 288.218 1228.79 318.127L1222.16 322.173L1221.26 322.723C1114.98 387.772 1004.92 455.14 889.412 507.834C762.402 565.912 623.738 604.234 488.879 618.04C442.163 622.853 395.226 625.459 349.768 627.983H349.767L344.506 628.275L341.348 628.446H341.348H341.347C271.928 632.199 200.274 636.073 131.158 648.031C-0.760574 670.785 -110.039 722.804 -184.701 798.214C-185.228 798.745 -186.084 798.747 -186.613 798.218C-187.135 797.695 -187.14 796.851 -186.62 796.326C-111.484 720.434 -1.72305 668.406 130.682 645.413C199.929 633.473 271.706 629.593 341.036 625.844L344.506 625.657C349.356 625.387 354.224 625.12 359.108 624.852C401.64 622.518 445.355 620.119 488.879 615.422C623.5 601.378 761.689 563.532 888.698 505.453C1003.96 452.761 1114.03 385.395 1220.3 320.348L1221.21 319.793C1272.11 288.611 1324.91 256.478 1377.71 226.01C1434.56 193.401 1486.17 166.742 1536.12 144.605C1678.2 80.8564 1801.42 57.4545 1912.82 72.7554ZM1932.84 83.2256C1932.97 82.4249 1932.42 81.6713 1931.62 81.5582C1817.83 65.5422 1690.8 88.9463 1543.49 153.65C1492.35 176.025 1439.07 202.922 1380.09 236.007C1327.05 265.523 1274.01 296.942 1222.87 327.41L1217.96 330.314C1107.23 395.82 993.011 463.392 873.477 516.403C747.894 572.101 610.657 609.471 476.749 624.943C432.034 630.179 387.081 633.512 343.555 636.606C270.774 641.843 195.377 647.317 122.834 661.837C-6.01369 687.436 -113.87 740.889 -188.99 816.083C-189.513 816.607 -189.51 817.454 -188.987 817.978C-188.46 818.505 -187.606 818.505 -187.08 817.977C-112.434 743.029 -5.05653 690.053 123.31 664.455C195.615 649.935 267.682 644.699 343.793 639.224C349.555 638.786 355.336 638.351 361.136 637.915C399.389 635.04 438.396 632.108 477.225 627.561C611.608 612.089 749.083 574.481 874.904 518.783C996.443 465.227 1112.51 396.437 1224.54 329.79C1229.64 326.776 1234.75 323.75 1239.88 320.714L1240.24 320.506L1240.25 320.499L1240.25 320.497L1240.26 320.489L1240.27 320.487L1240.27 320.486C1286.47 293.155 1333.9 265.1 1381.52 238.388C1440.26 205.54 1493.78 178.643 1544.68 156.269C1691.3 91.7909 1817.87 68.3908 1931.21 84.4226C1931.99 84.5328 1932.71 84.002 1932.84 83.2256ZM1950.28 90.3756C1951.02 90.4829 1951.52 91.1865 1951.39 91.9262C1951.26 92.6317 1950.6 93.1087 1949.89 93.0058C1834.14 76.2243 1703.96 99.6198 1552.29 165.076C1499.96 187.688 1444.78 214.823 1383.89 248.147C1330.85 277.186 1277.81 307.654 1226.68 337.169L1225.73 337.712C1108.29 405.381 986.827 475.37 859.919 529.732C735.763 582.812 599.24 619.944 465.332 636.844C424.661 642.081 383.751 645.889 344.269 649.459L342.481 649.626C264.176 656.943 190.056 663.869 115.936 680.641C-8.8777 708.846 -114.589 763.013 -189.221 837.501C-189.748 838.026 -190.599 838.025 -191.125 837.499C-191.649 836.974 -191.651 836.124 -191.125 835.601C-116.021 760.87 -10.0681 706.229 115.461 678.023C189.969 661.216 264.243 654.296 342.96 646.963L342.963 646.963L344.269 646.841C383.751 643.271 424.661 639.462 465.332 634.226C599.002 617.326 735.05 580.432 859.205 527.352C986.453 472.844 1107.99 402.864 1225.73 335.027C1231.6 331.655 1237.49 328.268 1243.4 324.869L1243.61 324.748L1244.51 324.228L1244.68 324.129C1290.1 298.012 1336.64 271.248 1383.18 245.767C1444.31 212.443 1499.49 185.308 1551.81 162.695C1703.44 97.2551 1834.07 73.619 1950.28 90.3756ZM1970.18 100.965C1970.31 100.228 1969.81 99.5253 1969.07 99.4147C1848.86 81.4635 1718.42 104.632 1559.19 172.216C1505.43 195.067 1448.59 222.44 1385.32 256.24C1332.97 284.199 1280.61 313.55 1229.86 342.003L1229.85 342.006L1227.87 343.119L1221.32 346.78C1099.92 414.673 974.586 484.764 843.746 538.777C721.731 589.239 586.634 625.657 452.964 643.985C421.224 648.373 389.3 652.028 358.159 655.593C353.83 656.089 349.516 656.582 345.22 657.076L341.329 657.514C260.241 666.632 183.692 675.239 107.374 694.684C-14.3629 725.497 -118.412 781.092 -193.734 855.594C-194.264 856.118 -194.263 856.97 -193.737 857.497C-193.212 858.022 -192.364 858.025 -191.836 857.503C-116.987 783.474 -13.4128 728.115 107.85 697.303C183.769 677.9 260.146 669.287 340.814 660.192L345.22 659.695C348.63 659.305 352.048 658.916 355.474 658.526L355.838 658.484C387.907 654.833 420.651 651.104 453.202 646.603C587.11 628.275 722.444 591.619 844.697 541.157C977.891 485.935 1105.61 414.527 1229.06 345.262C1280.43 316.46 1333.71 286.707 1386.51 258.382C1449.54 224.82 1506.39 197.447 1560.14 174.597C1718.93 107.237 1848.91 84.0728 1968.67 102.044C1969.38 102.15 1970.05 101.673 1970.18 100.965ZM1987.63 108.219C1988.37 108.331 1988.86 109.032 1988.73 109.768C1988.6 110.478 1987.93 110.955 1987.22 110.846C1865.08 92.1628 1731.77 115.329 1567.75 183.642C1512.81 206.492 1454.3 234.341 1388.89 268.379C1345.61 291.01 1302.17 314.6 1259.62 337.708C1250.26 342.793 1240.94 347.855 1231.67 352.879L1228.78 354.455C1100.53 424.423 967.815 496.824 829.713 552.107C708.411 600.664 577.596 635.654 441.31 655.886C415.392 659.846 389.144 663.312 363.526 666.695C358.347 667.379 353.194 668.059 348.074 668.74C261.974 679.927 180.868 690.638 100.239 713.251C-17.2375 746.434 -118.912 802.985 -194.215 877.027C-194.743 877.546 -195.589 877.542 -196.112 877.018C-196.64 876.49 -196.639 875.635 -196.107 875.112C-120.566 800.837 -18.4208 744.052 99.5251 710.632C178.312 688.304 257.78 677.794 341.924 666.665L341.925 666.665L341.927 666.665L345.242 666.227L347.836 665.883C352.954 665.203 358.105 664.523 363.283 663.839C388.903 660.456 415.152 656.99 441.072 653.03C577.358 632.56 707.698 597.808 828.999 549.25C967.833 493.675 1100.98 421.036 1229.87 350.725L1230.72 350.26L1234.81 348.023L1234.82 348.021L1234.83 348.016C1284.92 320.629 1336.54 292.405 1387.94 265.761C1453.35 231.723 1511.86 203.874 1567.04 181.023C1731.26 112.722 1865.03 89.5525 1987.63 108.219ZM2007.52 118.572C2007.65 117.837 2007.16 117.137 2006.42 117.022C1881.2 97.6428 1744.1 121.049 1574.65 190.068C1518.28 213.157 1458.1 241.006 1390.55 275.52C1337.75 302.417 1284.95 330.504 1233.58 357.877L1232.03 358.703L1232.02 358.704L1232.02 358.705C1097.64 430.333 958.544 504.478 814.015 560.199C696.281 605.662 566.655 640.176 429.18 662.313C408.808 665.711 388.137 668.809 367.878 671.846L367.864 671.848L367.832 671.853C362.562 672.643 357.319 673.428 352.117 674.214C261.498 687.782 176.111 700.635 91.9138 726.818C-22.0061 762.371 -122.247 820.345 -198.242 894.631C-198.777 895.153 -198.779 896.01 -198.251 896.538C-197.729 897.061 -196.884 897.066 -196.356 896.548C-120.832 822.495 -20.8243 764.754 92.6273 729.436C175.371 703.633 259.501 691.006 348.432 677.659L348.433 677.659L352.355 677.07C356.988 676.371 361.645 675.671 366.322 674.968C387.095 671.846 408.256 668.666 429.417 665.169C567.368 643.033 696.994 608.519 814.966 563.056C958.05 507.982 1095.37 434.909 1228.52 364.059L1234.76 360.733C1246.73 354.414 1258.77 348.03 1270.87 341.614L1270.88 341.613C1310.73 320.482 1351.24 299.009 1391.74 278.376C1459.05 243.862 1519.23 216.013 1575.6 192.925C1744.6 123.659 1881.48 100.254 2006.01 119.649C2006.72 119.76 2007.39 119.283 2007.52 118.572ZM2024.98 125.826C2025.71 125.942 2026.21 126.642 2026.07 127.375C2025.94 128.088 2025.27 128.566 2024.56 128.452C1897.65 108.345 1757.2 131.752 1583.21 202.208C1525.65 225.534 1463.57 253.621 1394.12 288.373C1341.56 314.556 1288.52 342.167 1237.38 368.826C1096.58 442.138 951.014 517.831 799.744 574.243C686.053 616.612 557.379 650.412 417.287 674.928C397.546 678.499 377.567 681.831 358.063 684.925L357.375 685.04L357.375 685.041L357.374 685.041C262.254 700.946 172.569 715.942 84.5404 746.098C-24.6528 783.551 -122.759 842.485 -199.209 916.553C-199.738 917.065 -200.58 917.058 -201.101 916.537C-201.631 916.007 -201.627 915.146 -201.089 914.623C-124.405 840.092 -26.0683 780.929 83.5891 743.48C171.606 713.327 261.515 698.331 356.858 682.429L357.588 682.307C376.853 678.975 396.832 675.642 416.812 672.31C556.665 648.031 685.102 614.232 798.793 571.863C948.239 516.131 1091.88 441.58 1231.1 369.328L1236.19 366.684C1287.33 340.025 1340.37 312.414 1392.93 286.231C1462.62 251.479 1524.46 223.154 1582.26 199.827C1756.94 129.143 1897.61 105.733 2024.98 125.826ZM2044.86 136.416C2045 135.684 2044.51 134.986 2043.77 134.867C1913.78 113.823 1769.78 137.473 1589.87 209.587C1530.88 232.913 1467.14 261.476 1395.31 296.704C1342.75 322.411 1289.71 349.308 1238.57 375.491C1092.29 449.993 941.025 526.876 783.808 583.526C674.399 622.8 550.481 655.172 404.92 682.307C398.378 683.497 391.896 684.688 385.414 685.878C378.933 687.068 372.453 688.258 365.913 689.448C264.828 708.014 169.214 725.628 76.2162 760.38C-28.7074 799.489 -125.376 859.842 -202.986 934.856C-203.526 935.378 -203.532 936.24 -203.001 936.771C-202.481 937.292 -201.641 937.299 -201.112 936.788C-123.736 861.999 -27.5306 801.874 77.1676 762.76C169.69 728.008 265.304 710.394 366.388 691.828C379.229 689.448 392.307 687.069 405.385 684.689L405.395 684.687C550.957 657.552 675.113 625.181 784.76 585.668C940.896 529.492 1090.95 453.187 1236.32 379.266L1236.32 379.266L1240 377.395C1291.13 351.212 1344.17 324.315 1396.74 298.608C1468.57 263.381 1532.07 235.055 1591.06 211.491C1770.27 140.319 1914.05 116.675 2043.34 137.494C2044.06 137.609 2044.73 137.13 2044.86 136.416ZM2062.35 143.675C2063.08 143.795 2063.55 144.49 2063.42 145.221C2063.29 145.936 2062.6 146.414 2061.89 146.296C1888.69 117.994 1714.69 175.187 1598.67 220.774C1537.54 244.815 1474.28 272.664 1399.12 308.606C1346.55 333.837 1293.51 360.257 1242.14 385.964L1237.62 388.217C1087.04 463.212 931.318 540.767 769.537 596.856C664.885 633.036 548.816 663.265 393.265 694.208L376.854 697.541C269.109 718.963 167.073 739.433 69.0806 779.184C-30.8875 819.723 -125.193 881.04 -203.966 956.552C-204.495 957.059 -205.333 957.05 -205.851 956.532C-206.384 955.999 -206.376 955.133 -205.832 954.612C-126.829 878.878 -32.2991 817.337 67.8913 776.804C165.007 737.269 265.842 717.045 372.466 695.66L376.14 694.923L392.551 691.59C548.103 660.647 663.934 630.655 768.586 594.237C931.372 537.882 1087.57 460.092 1238.81 384.767L1241.19 383.584C1253.16 377.65 1265.22 371.651 1277.34 365.621L1277.35 365.616C1317.26 345.767 1357.85 325.576 1398.16 306.225C1473.32 270.284 1536.59 242.196 1597.96 218.156C1840 123.206 1978.95 130.012 2062.35 143.675ZM2081.83 152.699C2081.76 152.698 2081.7 152.692 2081.63 152.68C2006.74 140.084 1928.05 141.757 1840.32 157.935C1769.44 170.788 1692.62 193.639 1605.33 227.439C1543.01 251.479 1477.84 279.804 1400.54 316.222C1347.74 341.215 1294.46 367.16 1243.09 392.391L1239.78 394.007C1083.35 470.389 921.527 549.407 753.84 605.424C629.922 646.841 496.252 676.594 380.897 701.111C274.104 723.724 163.743 747.288 60.5181 792.989C-35.4215 835.187 -125.699 896.038 -207.964 974.366C-208.511 974.887 -208.522 975.757 -207.989 976.292C-207.472 976.809 -206.635 976.817 -206.105 976.313C-124.066 898.203 -34.0125 837.576 61.4695 795.608C164.457 749.907 274.818 726.342 381.373 703.729C496.966 679.213 630.635 649.459 754.791 608.043C922.719 552.024 1084.55 473.004 1240.98 396.619L1240.98 396.619L1244.28 395.009C1253.52 390.512 1262.83 385.976 1272.18 381.416L1272.21 381.404C1314.83 360.631 1358.44 339.375 1401.73 319.079C1479.03 282.661 1544.2 254.336 1606.52 230.295C1725.9 184.123 1904.73 126.053 2081.2 155.544C2081.24 155.551 2081.28 155.555 2081.32 155.555C2081.7 155.555 2082.02 155.286 2082.09 154.916L2082.33 153.596C2082.4 153.183 2082.25 152.707 2081.83 152.699ZM2098.96 161.245C2099.01 161.253 2099.06 161.258 2099.11 161.262C2099.15 161.266 2099.19 161.268 2099.24 161.27C2099.31 161.273 2099.38 161.278 2099.46 161.285C2099.49 161.289 2099.53 161.293 2099.57 161.297C2099.61 161.301 2099.65 161.306 2099.68 161.311C2100.49 161.418 2101.1 162.245 2100.96 163.048C2100.84 163.671 2100.3 164.111 2099.68 163.997L2099.62 163.987C2099.52 163.967 2099.41 163.947 2099.31 163.931L2099.27 163.924L2099.21 163.915L2099.16 163.908C2099.12 163.903 2099.07 163.898 2099.03 163.894L2098.96 163.888L2098.9 163.882C2098.86 163.879 2098.83 163.876 2098.79 163.872L2098.76 163.867C2098.73 163.864 2098.71 163.861 2098.69 163.857C1919.64 133.932 1736.82 192.464 1614.6 239.102C1551.1 263.381 1484.27 291.944 1404.82 328.6C1359.2 349.689 1313.23 371.658 1268.26 393.145L1268.26 393.146L1268.13 393.208L1267.17 393.667C1260.22 396.984 1253.31 400.29 1246.42 403.578C1083.49 481.651 915.099 562.342 740.282 618.754C631.145 653.986 516.217 679.948 404.87 705.1L400.4 706.11L369.956 713.013C260.546 737.767 154.229 763.95 54.3339 811.793C-35.4714 854.24 -123.624 916.295 -208.008 996.075C-208.538 996.576 -209.373 996.567 -209.888 996.051C-210.423 995.516 -210.409 994.642 -209.859 994.122C-125.253 914.129 -36.8801 852.089 53.1447 809.413C153.516 761.57 260.071 735.387 369.48 710.632L399.449 703.491L403.999 702.463C515.322 677.317 630.217 651.363 739.093 616.374C913.672 560.2 1082.07 479.509 1244.75 401.436C1251.96 397.994 1259.2 394.534 1266.47 391.062L1266.6 391L1266.61 390.997L1266.64 390.983L1266.64 390.982L1266.64 390.981L1266.64 390.98C1311.59 369.5 1357.55 347.539 1403.16 326.458C1482.84 289.563 1549.44 261.238 1613.18 236.722C1702.85 202.446 1781.57 179.595 1853.64 166.504C1942.78 150.328 2022.89 148.654 2098.96 161.245ZM2118.36 170.186C2117.75 170.095 2117.11 169.965 2116.46 169.836C1935.94 139.845 1757.07 194.591 1621.26 245.767C1556.33 270.283 1487.83 299.085 1406.01 336.217C1362.67 356.075 1319.01 376.558 1276.17 396.653L1276.17 396.654L1276.16 396.662C1266.12 401.373 1256.12 406.063 1246.18 410.719L1245.16 411.198C1077.56 490.075 904.032 571.738 724.346 627.799C635.824 655.164 543.464 676.655 453.645 697.554L453.644 697.554L446.542 699.207C437.124 701.411 427.634 703.615 418.109 705.827L417.966 705.861L417.893 705.878L417.844 705.889C397.628 710.584 377.261 715.314 357.112 720.153C237.475 748.716 138.531 777.756 45.0578 825.837C-39.2941 868.993 -123.646 930.575 -212.466 1013.88C-213.019 1014.4 -213.037 1015.27 -212.501 1015.81C-211.987 1016.33 -211.153 1016.33 -210.624 1015.84C-122.02 932.508 -37.8863 871.146 46.247 828.217C139.721 780.374 238.427 751.573 357.826 722.772C375.482 718.531 393.391 714.374 411.153 710.251C423.298 707.432 435.375 704.628 447.256 701.825L449.728 701.248C540.771 680.005 635.018 658.014 725.06 630.179C905.342 574.556 1078.75 492.821 1246.69 413.658L1247.37 413.337C1299.7 388.582 1353.69 363.114 1407.2 338.835C1489.02 301.465 1557.28 272.902 1622.22 248.385C1757.73 197.233 1936.01 142.514 2115.73 172.413C2115.9 172.44 2116.07 172.453 2116.24 172.46C2116.81 172.482 2117.45 172.577 2118.11 172.698C2118.78 172.818 2119.41 172.389 2119.53 171.728C2119.67 170.991 2119.1 170.297 2118.36 170.186ZM2134.43 178.494L2134.79 178.547C2135.27 178.619 2135.74 178.691 2136.21 178.763C2136.55 178.815 2136.89 178.868 2137.23 178.92C2137.97 179.032 2138.47 179.727 2138.34 180.457C2138.21 181.166 2137.53 181.637 2136.82 181.514C1953.39 149.863 1769.59 205.424 1630.07 257.43C1563.94 281.947 1494.02 310.986 1409.82 348.594C1355.83 372.873 1301.12 398.104 1248.32 422.62C1075.17 502.835 896.072 585.668 710.314 641.129C634.203 663.741 554.762 682.307 478.176 700.159L470.825 701.887C429.626 711.573 387.475 721.483 346.171 731.817C251.508 755.857 140.91 787.991 38.8741 844.165C-61.4198 899.321 -148.07 974.959 -212.653 1035.02C-213.242 1035.57 -214.159 1035.52 -214.693 1034.92C-215.21 1034.34 -215.176 1033.46 -214.608 1032.93C-150.017 972.618 -63.1109 896.718 37.4469 841.547C139.721 785.135 250.557 753.001 345.458 728.96C389.221 717.773 434.174 707.3 477.462 697.303C554.049 679.451 633.49 660.885 709.6 638.272C895.358 583.05 1074.22 500.217 1247.37 420.002C1300.17 395.485 1354.88 370.254 1408.87 345.976C1493.07 308.368 1562.99 279.328 1629.35 254.812C1768.02 203.398 1950.68 147.938 2133.82 178.405C2134.03 178.435 2134.23 178.464 2134.43 178.494ZM2151.19 187.212C2152.14 187.331 2153.15 187.51 2154.16 187.688C2154.7 187.784 2155.24 187.88 2155.78 187.966C2156.51 188.086 2157.02 188.78 2156.89 189.513C2156.76 190.215 2156.09 190.681 2155.38 190.559C1968.85 157.953 1780.77 214.229 1637.68 266.713C1506.35 315.17 1376.43 374.424 1250.95 431.655L1248.32 432.855L1245.93 433.947C1068.52 514.775 885.226 598.29 695.092 652.554C630.16 671.12 562.849 686.83 497.679 701.825C338.322 738.719 173.257 777.042 31.025 861.065C-60.1095 914.839 -140.407 986.532 -215.026 1055.49C-215.615 1056.04 -216.535 1055.99 -217.067 1055.39C-217.585 1054.81 -217.543 1053.92 -216.971 1053.39C-142.338 984.415 -61.7904 912.469 29.598 858.685C172.306 774.423 337.371 736.101 497.203 699.207C562.373 684.211 629.684 668.502 694.616 649.935C885.504 595.457 1069.26 511.732 1247.32 430.606L1247.32 430.606L1247.61 430.475C1373.67 372.635 1504.24 313.128 1636.72 264.333C1778.96 211.967 1965.43 156.269 2151.19 187.212Z" fill="url(#paint0_linear_4474_22598)"/>
<defs>
<linearGradient id="paint0_linear_4474_22598" x1="903.793" y1="89.1069" x2="902.862" y2="83.8453" gradientUnits="userSpaceOnUse">
<stop stop-color="white"/>
<stop offset="1" stop-color="white"/>
</linearGradient>
</defs>
</svg>
