<svg width="201" height="62" viewBox="0 0 201 62" fill="none" xmlns="http://www.w3.org/2000/svg">
<g filter="url(#filter0_i_278_792)">
<path fill-rule="evenodd" clip-rule="evenodd" d="M6.43329 28.8211V22.7159L27.2094 10.7159L20.7758 7L0 19V43L9.09363 48.2524L29.8697 36.2524V28.8211L9.09363 40.8205L6.43329 39.2841V36.2524L38.9278 17.4842L32.4942 13.7685L6.43329 28.8211ZM34.4944 25.7479V39.2844L13.7183 51.2838L20.1518 55L40.9277 43.0003V22.032L34.4944 25.7479Z" fill="black"/>
</g>
<path d="M70.8099 29.8579C71.8322 30.2614 72.7335 31.1761 73.5137 32.602C74.3208 34.001 74.684 35.5614 74.6033 37.2832C74.5226 39.57 73.6348 41.5609 71.9399 43.2558C70.2449 44.9508 67.6891 45.7982 64.2723 45.7982C63.1424 45.7982 61.9452 45.6234 60.6807 45.2736C59.4432 44.897 58.3401 44.3185 57.3716 43.5383V39.3414C59.0665 40.7134 60.4386 41.5206 61.4878 41.7627C62.564 42.0048 63.4383 42.1259 64.1109 42.1259C65.5368 42.1259 66.7744 41.682 67.8236 40.7942C68.8998 39.8794 69.4378 38.4805 69.4378 36.5972C69.4378 35.4134 69.2226 34.4853 68.7921 33.8127C68.3886 33.1132 67.9581 32.6289 67.5008 32.3599C67.0972 32.064 66.613 31.8622 66.048 31.7546C65.5099 31.62 64.8777 31.5528 64.1513 31.5528C63.1828 31.5528 62.6985 30.9878 62.6985 29.8579C62.7254 28.701 63.3576 28.1226 64.5952 28.1226C65.0256 28.1226 65.3619 28.1226 65.6041 28.1226C65.8731 28.1226 66.1152 28.0957 66.3305 28.0419C67.03 27.8535 67.6756 27.3693 68.2675 26.5891C68.8594 25.8089 69.1822 24.7193 69.2361 23.3203C69.3168 21.8137 68.9536 20.6837 68.1465 19.9304C67.3663 19.1502 66.4246 18.7601 65.3216 18.7601C64.5414 18.7601 63.8284 19.0157 63.1828 19.5269C62.5371 20.0112 62.0797 20.9124 61.8107 22.2307H57.4926C57.8155 19.9439 58.6764 18.2086 60.0754 17.0249C61.5013 15.8411 63.3038 15.2492 65.483 15.2492C68.2272 15.2492 70.366 16.0025 71.8995 17.5091C73.4599 18.9888 74.2401 20.8855 74.2401 23.1992C74.2401 24.9749 73.8366 26.468 73.0295 27.6787C72.2493 28.8893 71.5094 29.6157 70.8099 29.8579ZM93.3976 45.1122C93.7474 45.731 94.2989 46.2018 95.0522 46.5246C96.1552 47.0358 98.1326 47.0492 100.984 46.565V49.3898C99.8814 49.6858 99.0205 49.8607 98.4017 49.9145C97.7829 49.9683 97.0834 49.9952 96.3032 49.9952C93.7743 49.9952 91.7161 49.5378 90.1288 48.6231C88.8375 47.9236 87.8017 46.7937 87.0215 45.2332C84.3311 44.7221 82.1519 43.3904 80.4839 41.2381C78.2509 38.3594 77.1344 34.7005 77.1344 30.2614C77.1344 25.8223 78.2374 22.1769 80.4435 19.3251C82.6765 16.4464 85.8377 15.0071 89.927 15.0071C94.0164 15.0071 97.1776 16.4464 99.4106 19.3251C101.644 22.1769 102.76 25.8223 102.76 30.2614C102.76 34.7005 101.644 38.3594 99.4106 41.2381C97.8771 43.2289 95.8727 44.5203 93.3976 45.1122ZM82.3806 30.2614C82.3806 34.0279 83.1204 36.92 84.6001 38.9378C86.0798 40.9287 87.8555 41.9241 89.927 41.9241C91.9986 41.9241 93.7743 40.9287 95.254 38.9378C96.7606 36.92 97.5139 34.0279 97.5139 30.2614C97.5139 26.4949 96.7606 23.6028 95.254 21.585C93.7743 19.5672 91.9986 18.5584 89.927 18.5584C87.8555 18.5584 86.0798 19.5672 84.6001 21.585C83.1204 23.6028 82.3806 26.4949 82.3806 30.2614ZM123.37 45.2736H118.366V43.2155L117.963 43.619C116.644 44.9104 114.95 45.5561 112.878 45.5561C111.022 45.5561 109.475 44.9104 108.237 43.619C107 42.3008 106.381 40.1888 106.381 37.2832V29.0508C106.381 28.2167 106.313 27.6652 106.179 27.3962C106.071 27.1271 105.95 26.9657 105.816 26.9119C105.385 26.7505 105.022 26.5891 104.726 26.4277C104.457 26.2393 104.323 25.903 104.323 25.4188C104.323 24.5579 104.888 24.1274 106.018 24.1274H109.65C110.806 24.1274 111.385 24.5713 111.385 25.4591V37.0411C111.385 38.9244 111.627 40.1888 112.111 40.8345C112.595 41.4533 113.187 41.7627 113.887 41.7627C115.178 41.7627 116.362 41.117 117.438 39.8256C117.788 39.3952 118.097 38.8302 118.366 38.1307V29.0911C118.366 28.2302 118.312 27.6652 118.205 27.3962C118.097 27.1271 117.895 26.9254 117.6 26.7909C117.196 26.6832 116.873 26.5353 116.631 26.3469C116.389 26.1586 116.268 25.8761 116.268 25.4995C116.268 24.5848 116.846 24.1274 118.003 24.1274H121.635C122.792 24.1274 123.37 24.6117 123.37 25.5802V45.2736ZM139.501 43.8612C139.151 44.1302 138.533 44.4799 137.645 44.9104C136.757 45.3409 135.506 45.5561 133.892 45.5561C131.982 45.5561 130.408 45.0046 129.17 43.9015C127.933 42.7716 127.314 41.3322 127.314 39.5835C127.314 37.216 128.363 35.3193 130.462 33.8934C132.587 32.4675 135.156 31.7546 138.169 31.7546H139.461V30.9071C139.461 29.6695 139.111 28.701 138.412 28.0015C137.712 27.2751 136.878 26.9119 135.91 26.9119C135.049 26.9119 134.309 27.1406 133.69 27.598C133.098 28.0553 132.802 28.9431 132.802 30.2614H127.556C127.556 28.136 128.323 26.4949 129.856 25.3381C131.39 24.1812 133.448 23.6028 136.031 23.6028C138.775 23.6028 140.86 24.2888 142.286 25.6609C143.738 27.0061 144.465 28.8221 144.465 31.1089V45.2736H139.501V43.8612ZM139.461 35.1848C137.282 35.131 135.546 35.4673 134.255 36.1937C132.964 36.92 132.318 37.9155 132.318 39.1799C132.318 40.2561 132.574 40.9959 133.085 41.3995C133.596 41.7761 134.174 41.9645 134.82 41.9645C135.95 41.9645 136.999 41.5475 137.968 40.7134C138.963 39.8794 139.461 38.8706 139.461 37.6868V35.1848ZM153.977 45.2736H149.054V29.0911C149.054 28.2302 149 27.6787 148.893 27.4365C148.812 27.1675 148.664 26.9926 148.449 26.9119C147.964 26.7236 147.574 26.5487 147.278 26.3873C146.983 26.2259 146.835 25.903 146.835 25.4188C146.835 24.5579 147.4 24.1274 148.529 24.1274H152.242C153.399 24.1274 153.977 24.6117 153.977 25.5802V26.3066C154.273 25.9837 154.623 25.6744 155.027 25.3784C156.291 24.3292 157.811 23.8046 159.587 23.8046C161.524 23.8046 163.084 24.4637 164.268 25.782C165.479 27.1002 166.084 29.3198 166.084 32.4406V45.2736H161.08V32.3599C161.08 30.4766 160.838 29.2256 160.354 28.6068C159.869 27.9612 159.331 27.6383 158.739 27.6383C157.529 27.6652 156.332 28.432 155.148 29.9386C154.69 30.5305 154.3 31.203 153.977 31.9563V45.2736ZM176.525 15.9353V24.1274H181.973V27.3962H176.565V39.9063C176.565 40.8749 176.727 41.5071 177.049 41.803C177.399 42.099 177.924 42.247 178.623 42.247C179 42.247 179.363 42.247 179.713 42.247C180.09 42.22 180.964 42.0317 182.336 41.682V45.0718C181.421 45.3678 180.533 45.5426 179.672 45.5964C178.838 45.6503 178.193 45.6772 177.735 45.6772C176.363 45.6772 175.233 45.5292 174.346 45.2332C173.458 44.9104 172.826 44.453 172.449 43.8612C172.018 43.3231 171.763 42.6505 171.682 41.8434C171.628 41.0094 171.601 40.1485 171.601 39.2607V27.3962H168.696V24.1274H171.601V21.02L176.525 15.9353ZM190.719 35.7901C188.755 35.1175 187.167 34.27 185.957 33.2477C184.773 32.1985 184.181 30.934 184.181 29.4543C184.181 27.6518 184.827 26.2124 186.118 25.1363C187.409 24.0332 189.32 23.4414 191.849 23.3607C192.952 23.3068 194.041 23.401 195.117 23.6431C196.22 23.8584 197.296 24.2216 198.346 24.7327V29.6157C196.785 28.2706 195.521 27.45 194.552 27.1541C193.611 26.8312 192.763 26.6832 192.01 26.7101C191.122 26.7101 190.409 26.8985 189.871 27.2751C189.36 27.6518 189.077 28.2302 189.024 29.0104C188.997 29.683 189.373 30.3018 190.154 30.8667C190.961 31.4048 192.091 31.9563 193.543 32.5213C195.723 33.3284 197.283 34.2431 198.225 35.2655C199.193 36.2878 199.677 37.485 199.677 38.8571C199.677 40.9287 198.924 42.5698 197.418 43.7805C195.938 44.9642 193.853 45.5561 191.162 45.5561C189.844 45.5561 188.607 45.3812 187.45 45.0315C186.32 44.6548 185.472 44.2109 184.907 43.6997C184.316 43.1886 184.006 42.7312 183.979 42.3277C183.952 41.8972 184.033 41.534 184.221 41.2381C184.625 40.6731 185.136 40.3772 185.755 40.3503C186.374 40.2964 186.952 40.5117 187.49 40.9959C187.974 41.3457 188.566 41.6416 189.266 41.8838C189.965 42.099 190.597 42.2066 191.162 42.2066C192.481 42.1528 193.436 41.803 194.028 41.1574C194.646 40.5117 194.875 39.718 194.714 38.7764C194.66 38.319 194.364 37.8348 193.826 37.3236C193.288 36.8124 192.252 36.3013 190.719 35.7901Z" fill="black"/>
<defs>
<filter id="filter0_i_278_792" x="0" y="7" width="40.9277" height="48.0001" filterUnits="userSpaceOnUse" color-interpolation-filters="sRGB">
<feFlood flood-opacity="0" result="BackgroundImageFix"/>
<feBlend mode="normal" in="SourceGraphic" in2="BackgroundImageFix" result="shape"/>
<feColorMatrix in="SourceAlpha" type="matrix" values="0 0 0 0 0 0 0 0 0 0 0 0 0 0 0 0 0 0 127 0" result="hardAlpha"/>
<feOffset/>
<feGaussianBlur stdDeviation="2"/>
<feComposite in2="hardAlpha" operator="arithmetic" k2="-1" k3="1"/>
<feColorMatrix type="matrix" values="0 0 0 0 1 0 0 0 0 1 0 0 0 0 1 0 0 0 0.5 0"/>
<feBlend mode="normal" in2="shape" result="effect1_innerShadow_278_792"/>
</filter>
</defs>
</svg>
