<svg width="48" height="49" viewBox="0 0 48 49" fill="none" xmlns="http://www.w3.org/2000/svg">
<g clip-path="url(#clip0_113_550)">
<path d="M24 17.3369C17.5608 17.3369 10.9537 15.5538 10.7844 12.1459C10.7561 11.577 11.1943 11.0929 11.7631 11.0647C12.3324 11.0356 12.8159 11.4747 12.8443 12.0436C12.8704 12.5697 13.7927 13.4103 15.7945 14.102C17.9823 14.858 20.8963 15.2744 23.9999 15.2744C27.1035 15.2744 30.0177 14.858 32.2055 14.102C34.2072 13.4104 35.1295 12.5698 35.1556 12.0436C35.1838 11.4748 35.6683 11.0359 36.2367 11.0647C36.8055 11.0929 37.2438 11.577 37.2155 12.1459C37.0466 15.5539 30.4393 17.3369 24 17.3369Z" fill="#33CCCC"/>
<path d="M24 23.2298C17.5608 23.2298 10.9537 21.4467 10.7844 18.0387C10.7561 17.4699 11.1943 16.9859 11.7631 16.9576C12.3324 16.9281 12.8159 17.3675 12.8443 17.9363C12.8704 18.4625 13.7927 19.3031 15.7945 19.9949C17.9823 20.7509 20.8963 21.1672 23.9999 21.1672C27.1035 21.1672 30.0177 20.7509 32.2055 19.9949C34.2072 19.3032 35.1295 18.4626 35.1556 17.9364C35.1838 17.3676 35.6683 16.929 36.2367 16.9576C36.8055 16.9858 37.2438 17.4698 37.2155 18.0387C37.0466 21.4467 30.4393 23.2298 24 23.2298Z" fill="#33CCCC"/>
<path d="M24 0.810059C17.4311 0.810059 10.7812 2.6364 10.7812 6.127V23.8055C10.7812 25.7309 12.8045 27.15 15.7213 28.0354V35.8641L13.2963 38.2892C12.8935 38.6919 12.8935 39.3449 13.2963 39.7476C13.4977 39.949 13.7616 40.0497 14.0255 40.0497C14.2894 40.0497 14.5534 39.949 14.7547 39.7476L17.4818 37.0204C17.6752 36.827 17.7838 36.5648 17.7838 36.2912V28.546C19.3999 28.8671 21.1741 29.0553 22.9688 29.1076V43.0913C22.9688 43.6608 23.4305 44.1226 24 44.1226C24.5695 44.1226 25.0312 43.6608 25.0312 43.0913V29.1076C26.8258 29.0553 28.6 28.8671 30.2162 28.546V36.2912C30.2162 36.5647 30.3248 36.827 30.5183 37.0204L33.2454 39.7476C33.4468 39.949 33.7107 40.0497 33.9746 40.0497C34.2385 40.0497 34.5024 39.949 34.7038 39.7476C35.1066 39.3449 35.1066 38.6919 34.7038 38.2892L32.2787 35.864V28.0353C35.1954 27.15 37.2188 25.731 37.2188 23.8056V6.127C37.2188 2.6364 30.5689 0.810059 24 0.810059ZM15.7242 4.06946C17.919 3.29762 20.8582 2.87256 24 2.87256C27.1419 2.87256 30.0809 3.29762 32.2757 4.06946C34.2655 4.76912 35.1562 5.60697 35.1562 6.127V6.14181C35.1561 6.14471 35.1559 6.14771 35.1557 6.15062C35.1296 6.67684 34.2072 7.5174 32.2056 8.20909C30.0177 8.96509 27.1036 9.38153 24 9.38153C20.8964 9.38153 17.9824 8.96518 15.7945 8.20918C13.7928 7.5175 12.8706 6.67684 12.8443 6.15062C12.8441 6.14771 12.8439 6.14471 12.8438 6.14181V6.127C12.8438 5.60697 13.7344 4.76912 15.7242 4.06946ZM32.2757 25.8632C30.0809 26.635 27.1418 27.0601 24 27.0601C20.8582 27.0601 17.9191 26.635 15.7243 25.8632C13.7344 25.1635 12.8438 24.3257 12.8438 23.8056V9.10647C15.3266 10.6491 19.7007 11.444 24 11.444C28.2993 11.444 32.6734 10.6491 35.1562 9.10656V23.8056C35.1562 24.3257 34.2655 25.1635 32.2757 25.8632Z" fill="black"/>
<path d="M24 48.8101C22.2681 48.8101 20.8593 47.4012 20.8593 45.6694C20.8593 43.9377 22.2682 42.5288 24 42.5288C25.7317 42.5288 27.1405 43.9377 27.1405 45.6694C27.1405 47.4012 25.7317 48.8101 24 48.8101ZM24 44.5913C23.4054 44.5913 22.9218 45.075 22.9218 45.6694C22.9218 46.2639 23.4055 46.7476 24 46.7476C24.5944 46.7476 25.078 46.2639 25.078 45.6694C25.078 45.075 24.5944 44.5913 24 44.5913Z" fill="#33CCCC"/>
<path d="M12.323 43.8616C10.5912 43.8616 9.18237 42.4527 9.18237 40.7209C9.18237 38.9892 10.5912 37.5803 12.323 37.5803C14.0547 37.5803 15.4636 38.9892 15.4636 40.7209C15.4636 42.4527 14.0547 43.8616 12.323 43.8616ZM12.323 39.6428C11.7285 39.6428 11.2449 40.1265 11.2449 40.7209C11.2449 41.3154 11.7285 41.7991 12.323 41.7991C12.9175 41.7991 13.4011 41.3154 13.4011 40.7209C13.4011 40.1265 12.9175 39.6428 12.323 39.6428Z" fill="#33CCCC"/>
<path d="M35.6771 43.8616C33.9453 43.8616 32.5364 42.4527 32.5364 40.7209C32.5364 38.9892 33.9453 37.5803 35.6771 37.5803C37.4088 37.5803 38.8176 38.9892 38.8176 40.7209C38.8176 42.4527 37.4088 43.8616 35.6771 43.8616ZM35.6771 39.6428C35.0825 39.6428 34.5989 40.1265 34.5989 40.7209C34.5989 41.3154 35.0825 41.7991 35.6771 41.7991C36.2716 41.7991 36.7551 41.3154 36.7551 40.7209C36.7551 40.1265 36.2716 39.6428 35.6771 39.6428Z" fill="#33CCCC"/>
</g>
<defs>
<clipPath id="clip0_113_550">
<rect width="48" height="48" fill="white" transform="translate(0 0.810059)"/>
</clipPath>
</defs>
</svg>
