<svg width="48" height="49" viewBox="0 0 48 49" fill="none" xmlns="http://www.w3.org/2000/svg">
<g clip-path="url(#clip0_113_569)">
<path d="M46.9687 25.8413H29.8136C29.2441 25.8413 28.7823 25.3796 28.7823 24.8101C28.7823 24.2405 29.2441 23.7788 29.8136 23.7788H46.9687C47.5383 23.7788 48 24.2405 48 24.8101C48 25.3796 47.5383 25.8413 46.9687 25.8413Z" fill="#33CCCC"/>
<path d="M46.9687 43.0917H29.8136C29.2441 43.0917 28.7823 42.63 28.7823 42.0604C28.7823 41.4909 29.2441 41.0292 29.8136 41.0292H46.9687C47.5383 41.0292 48 41.4909 48 42.0604C48 42.63 47.5383 43.0917 46.9687 43.0917Z" fill="#33CCCC"/>
<path d="M29.8136 28.7004H1.03125C0.461719 28.7004 0 28.2387 0 27.6692C0 27.0997 0.461719 26.6379 1.03125 26.6379H29.8136C30.3832 26.6379 30.8449 27.0997 30.8449 27.6692C30.8449 28.2387 30.3832 28.7004 29.8136 28.7004Z" fill="#33CCCC"/>
<path d="M44.1096 18.0604H42.2816V4.7005C42.2816 2.55531 40.5364 0.810059 38.3912 0.810059H3.89044C1.74525 0.810059 0 2.55531 0 4.7005V30.5284C0 32.6736 1.74525 34.4189 3.89044 34.4189H17.2504V38.0747H12.5632C11.9937 38.0747 11.532 38.5365 11.532 39.106C11.532 39.6755 11.9937 40.1372 12.5632 40.1372H28.7824V44.9196C28.7824 47.0648 30.5276 48.8101 32.6728 48.8101H44.1096C46.2548 48.8101 48 47.0648 48 44.9196V21.9509C48 19.8057 46.2548 18.0604 44.1096 18.0604ZM2.0625 30.5284V4.7005C2.0625 3.69259 2.88253 2.87256 3.89044 2.87256H38.3912C39.3991 2.87256 40.2191 3.69259 40.2191 4.7005V18.0604H32.6728C30.5276 18.0604 28.7824 19.8057 28.7824 21.9509V32.3564H3.89044C2.88253 32.3564 2.0625 31.5363 2.0625 30.5284ZM19.3129 34.4189H22.9688V38.0747H19.3129V34.4189ZM25.0312 38.0747V34.4189H28.7824V38.0747H25.0312ZM45.9375 44.9196C45.9375 45.9275 45.1175 46.7476 44.1096 46.7476H32.6728C31.6649 46.7476 30.8449 45.9275 30.8449 44.9196V21.9509C30.8449 20.943 31.6649 20.1229 32.6728 20.1229H44.1096C45.1175 20.1229 45.9375 20.943 45.9375 21.9509V44.9196Z" fill="black"/>
</g>
<defs>
<clipPath id="clip0_113_569">
<rect width="48" height="48" fill="white" transform="translate(0 0.810059)"/>
</clipPath>
</defs>
</svg>
