<svg width="48" height="49" viewBox="0 0 48 49" fill="none" xmlns="http://www.w3.org/2000/svg">
<g clip-path="url(#clip0_113_534)">
<path d="M36.705 27.5909H25.0313V25.3839H33.6313C38.2065 25.3839 41.9287 21.6677 41.9287 17.1C41.9287 12.5706 38.2688 8.87865 33.7466 8.81678C32.1549 4.06281 27.6823 0.810059 22.5933 0.810059C19.5068 0.810059 16.5905 1.99487 14.3815 4.14606C12.3594 6.11546 11.133 8.69509 10.8812 11.4774C9.62673 11.9144 8.50257 12.7004 7.66041 13.741C6.63563 15.007 6.07135 16.6022 6.07135 18.2328C6.07135 22.176 9.28426 25.3839 13.2336 25.3839H22.9688V27.5909H11.295C9.20391 27.5909 7.50282 29.2921 7.50282 31.3832V35.4395C7.50282 36.5267 7.96276 37.5084 8.69813 38.2006C7.96276 38.8927 7.50282 39.8746 7.50282 40.9619V45.0175C7.50282 47.1088 9.20391 48.8101 11.2947 48.8101H36.7052C38.7961 48.8101 40.4971 47.1088 40.4971 45.0175V40.9619C40.4971 39.8746 40.0372 38.8927 39.3018 38.2006C40.0372 37.5085 40.4971 36.5267 40.4971 35.4395V31.3832C40.4972 29.2921 38.796 27.5909 36.705 27.5909ZM8.13385 18.2328C8.13385 15.8413 9.76323 13.801 12.0962 13.2712C12.5559 13.1668 12.8864 12.7638 12.8988 12.2926C13.0371 7.01031 17.2954 2.87256 22.5933 2.87256C27.0224 2.87256 30.8849 5.85812 31.9863 10.1328C32.1122 10.6214 32.5742 10.9472 33.0755 10.9028C33.2589 10.8867 33.4458 10.8784 33.6313 10.8784C37.0692 10.8784 39.8662 13.6694 39.8662 17.0999C39.8662 20.5304 37.0692 23.3213 33.6313 23.3213H13.2336C10.4215 23.3214 8.13385 21.0387 8.13385 18.2328ZM9.56532 31.3832C9.56532 30.4293 10.3412 29.6534 11.295 29.6534H36.705C37.6588 29.6534 38.4347 30.4293 38.4347 31.3832V35.4395C38.4347 36.3933 37.6588 37.1693 36.705 37.1693H11.295C10.3412 37.1693 9.56532 36.3933 9.56532 35.4395V31.3832ZM36.7052 39.2317C37.6588 39.2317 38.4346 40.0079 38.4346 40.9619V45.0175C38.4346 45.9715 37.6588 46.7476 36.7052 46.7476H11.2948C10.3412 46.7476 9.56541 45.9715 9.56541 45.0175V40.9619C9.56541 40.0079 10.3412 39.2317 11.2948 39.2317H36.7052Z" fill="black"/>
<path d="M20.8152 41.9585H13.3423C12.7728 41.9585 12.3111 42.4202 12.3111 42.9897C12.3111 43.5593 12.7728 44.021 13.3423 44.021H20.8152C21.3847 44.021 21.8464 43.5593 21.8464 42.9897C21.8464 42.4202 21.3848 41.9585 20.8152 41.9585Z" fill="#33CCCC"/>
<path d="M28.2113 42.5954C28.048 42.1909 27.6256 41.9328 27.1922 41.961C26.7556 41.9894 26.3776 42.3007 26.2634 42.7226C26.1493 43.1445 26.3245 43.6044 26.6869 43.8469C27.0504 44.0902 27.5397 44.0727 27.8867 43.8075C28.2514 43.529 28.3914 43.0192 28.2113 42.5954Z" fill="#33CCCC"/>
<path d="M31.9107 42.5955C31.7563 42.2131 31.3693 41.9608 30.9593 41.959C30.5215 41.9571 30.1243 42.2457 29.9825 42.6583C29.8325 43.0948 30.0035 43.5911 30.3863 43.8471C30.7366 44.0813 31.2048 44.0753 31.5496 43.8344C31.9385 43.5627 32.0971 43.0342 31.9107 42.5955Z" fill="#33CCCC"/>
<path d="M35.61 42.5954C35.4439 42.1983 35.0383 41.9379 34.607 41.9595C34.1774 41.9812 33.7958 42.2781 33.6714 42.6902C33.5492 43.0956 33.6918 43.5503 34.03 43.8076C34.3782 44.0725 34.8657 44.0901 35.2303 43.847C35.6356 43.5768 35.7936 43.0448 35.61 42.5954Z" fill="#33CCCC"/>
<path d="M20.8152 32.3801H13.3423C12.7728 32.3801 12.3111 32.8418 12.3111 33.4114C12.3111 33.9809 12.7728 34.4426 13.3423 34.4426H20.8152C21.3847 34.4426 21.8464 33.9809 21.8464 33.4114C21.8464 32.8418 21.3848 32.3801 20.8152 32.3801Z" fill="#33CCCC"/>
<path d="M28.2113 33.017C28.0456 32.6128 27.6269 32.3542 27.1917 32.3826C26.7551 32.4111 26.3776 32.723 26.2636 33.1446C26.1494 33.5666 26.3247 34.0261 26.687 34.2685C27.0506 34.5119 27.5397 34.4942 27.8868 34.2291C28.2515 33.9508 28.3913 33.4408 28.2113 33.017Z" fill="#33CCCC"/>
<path d="M30.7565 32.4001C30.3035 32.4906 29.9615 32.8844 29.9293 33.3442C29.8979 33.7921 30.1776 34.2176 30.5955 34.3758C30.9934 34.5263 31.4525 34.4099 31.7337 34.0913C32.0158 33.7717 32.0665 33.2966 31.8657 32.9225C31.6547 32.5293 31.1947 32.312 30.7565 32.4001Z" fill="#33CCCC"/>
<path d="M33.705 33.8054C33.8707 34.2014 34.2776 34.4644 34.7081 34.4414C35.1386 34.4185 35.5185 34.1239 35.6437 33.7108C35.7667 33.3045 35.6226 32.8519 35.2854 32.5933C34.9381 32.3269 34.4497 32.3129 34.0857 32.5539C33.6794 32.8228 33.5216 33.3565 33.705 33.8054Z" fill="#33CCCC"/>
</g>
<defs>
<clipPath id="clip0_113_534">
<rect width="48" height="48" fill="white" transform="translate(0 0.810059)"/>
</clipPath>
</defs>
</svg>
