<svg width="41" height="48" viewBox="0 0 41 48" fill="none" xmlns="http://www.w3.org/2000/svg">
<path d="M34.4944 32.2844V18.7479L40.9277 15.032V36.0003L20.1518 48L13.7183 44.2838L34.4944 32.2844Z" fill="url(#paint0_linear_275_721)"/>
<g style="mix-blend-mode:color-dodge" opacity="0.2">
<path d="M34.4944 32.2844V18.7479L40.9277 15.032V36.0003L20.1518 48L13.7183 44.2838L34.4944 32.2844Z" fill="url(#paint1_linear_275_721)"/>
</g>
<path d="M6.43329 15.7159V21.8211L32.4942 6.76851L38.9278 10.4842L6.43329 29.2524V32.2841L9.09363 33.8205L29.8697 21.8211V29.2524L9.09363 41.2524L0 36V12L20.7758 0L27.2094 3.71594L6.43329 15.7159Z" fill="url(#paint2_linear_275_721)"/>
<path opacity="0.2" d="M6.43329 15.7159V21.8211L32.4942 6.76851L38.9278 10.4842L6.43329 29.2524V32.2841L9.09363 33.8205L29.8697 21.8211V29.2524L9.09363 41.2524L0 36V12L20.7758 0L27.2094 3.71594L6.43329 15.7159Z" fill="url(#paint3_linear_275_721)"/>
<defs>
<linearGradient id="paint0_linear_275_721" x1="13.7183" y1="48" x2="40.9277" y2="15.032" gradientUnits="userSpaceOnUse">
<stop stop-color="#8900FF"/>
<stop offset="1" stop-color="#C670FF"/>
</linearGradient>
<linearGradient id="paint1_linear_275_721" x1="27.323" y1="15.032" x2="27.323" y2="48" gradientUnits="userSpaceOnUse">
<stop stop-color="white"/>
<stop offset="1" stop-color="white" stop-opacity="0"/>
</linearGradient>
<linearGradient id="paint2_linear_275_721" x1="20.8203" y1="-2.00292e-07" x2="9.74703" y2="41.2524" gradientUnits="userSpaceOnUse">
<stop stop-color="#A737FE"/>
<stop offset="1" stop-color="#E853A4"/>
</linearGradient>
<linearGradient id="paint3_linear_275_721" x1="19.4639" y1="0" x2="19.4639" y2="41.2524" gradientUnits="userSpaceOnUse">
<stop stop-color="white" stop-opacity="0"/>
<stop offset="1" stop-color="white"/>
</linearGradient>
</defs>
</svg>
