<svg width="25" height="25" viewBox="0 0 25 25" fill="none" xmlns="http://www.w3.org/2000/svg">
<path d="M17.25 11.3467C17.25 11.5456 17.171 11.7364 17.0303 11.877C16.8897 12.0177 16.6989 12.0967 16.5 12.0967H8.5C8.30109 12.0967 8.11032 12.0177 7.96967 11.877C7.82902 11.7364 7.75 11.5456 7.75 11.3467C7.75 11.1478 7.82902 10.957 7.96967 10.8163C8.11032 10.6757 8.30109 10.5967 8.5 10.5967H16.5C16.6989 10.5967 16.8897 10.6757 17.0303 10.8163C17.171 10.957 17.25 11.1478 17.25 11.3467ZM13.5 14.5967H8.5C8.30109 14.5967 8.11032 14.6757 7.96967 14.8163C7.82902 14.957 7.75 15.1478 7.75 15.3467C7.75 15.5456 7.82902 15.7364 7.96967 15.877C8.11032 16.0177 8.30109 16.0967 8.5 16.0967H13.5C13.6989 16.0967 13.8897 16.0177 14.0303 15.877C14.171 15.7364 14.25 15.5456 14.25 15.3467C14.25 15.1478 14.171 14.957 14.0303 14.8163C13.8897 14.6757 13.6989 14.5967 13.5 14.5967ZM22.25 7.17268V19.0207C22.25 21.6487 20.802 23.0967 18.172 23.0967H6.828C4.2 23.0967 2.75 21.6467 2.75 19.0207V7.17268C2.75 4.54668 4.2 3.09668 6.828 3.09668H7.306V2.34668C7.306 2.14777 7.38502 1.957 7.52567 1.81635C7.66632 1.6757 7.85709 1.59668 8.056 1.59668C8.25491 1.59668 8.44568 1.6757 8.58633 1.81635C8.72698 1.957 8.806 2.14777 8.806 2.34668V3.09668H11.75V2.34668C11.75 2.14777 11.829 1.957 11.9697 1.81635C12.1103 1.6757 12.3011 1.59668 12.5 1.59668C12.6989 1.59668 12.8897 1.6757 13.0303 1.81635C13.171 1.957 13.25 2.14777 13.25 2.34668V3.09668H16.194V2.34668C16.194 2.14777 16.273 1.957 16.4137 1.81635C16.5543 1.6757 16.7451 1.59668 16.944 1.59668C17.1429 1.59668 17.3337 1.6757 17.4743 1.81635C17.615 1.957 17.694 2.14777 17.694 2.34668V3.09668H18.172C20.8 3.09668 22.25 4.54668 22.25 7.17268ZM20.75 7.17268C20.75 5.37268 19.979 4.59668 18.172 4.59668H17.694V5.34668C17.694 5.54559 17.615 5.73636 17.4743 5.87701C17.3337 6.01766 17.1429 6.09668 16.944 6.09668C16.7451 6.09668 16.5543 6.01766 16.4137 5.87701C16.273 5.73636 16.194 5.54559 16.194 5.34668V4.59668H13.25V5.34668C13.25 5.54559 13.171 5.73636 13.0303 5.87701C12.8897 6.01766 12.6989 6.09668 12.5 6.09668C12.3011 6.09668 12.1103 6.01766 11.9697 5.87701C11.829 5.73636 11.75 5.54559 11.75 5.34668V4.59668H8.806V5.34668C8.806 5.54559 8.72698 5.73636 8.58633 5.87701C8.44568 6.01766 8.25491 6.09668 8.056 6.09668C7.85709 6.09668 7.66632 6.01766 7.52567 5.87701C7.38502 5.73636 7.306 5.54559 7.306 5.34668V4.59668H6.828C5.021 4.59668 4.25 5.36768 4.25 7.17268V19.0207C4.25 20.8207 5.021 21.5967 6.828 21.5967H18.172C19.979 21.5967 20.75 20.8257 20.75 19.0207V7.17268Z" fill="white"/>
</svg>
