<svg width="48" height="49" viewBox="0 0 48 49" fill="none" xmlns="http://www.w3.org/2000/svg">
<rect x="0.5" y="1.08008" width="47" height="47" rx="23.5" stroke="white"/>
<path d="M19.4093 32.6658H15.7765V20.9861H19.4093V32.6658ZM17.5734 19.4236C16.4406 19.4236 15.5031 18.447 15.5031 17.2751C15.5031 16.1423 16.4406 15.2048 17.5734 15.2048C18.7453 15.2048 19.6828 16.1423 19.6828 17.2751C19.6828 18.447 18.7453 19.4236 17.5734 19.4236ZM32.964 32.6658H29.3703V27.0017C29.3703 25.6345 29.3312 23.9158 27.4562 23.9158C25.5812 23.9158 25.3078 25.3611 25.3078 26.8845V32.6658H21.6749V20.9861H25.1515V22.5876H25.1906C25.6984 21.6892 26.8703 20.7126 28.6281 20.7126C32.2999 20.7126 33.0031 23.1345 33.0031 26.2595V32.6658H32.964Z" fill="white"/>
</svg>
