<svg width="49" height="49" viewBox="0 0 49 49" fill="none" xmlns="http://www.w3.org/2000/svg">
<circle cx="24.5" cy="24.6617" r="24" fill="black"/>
<path d="M19.9093 32.7474H16.2765V21.0677H19.9093V32.7474ZM18.0734 19.5052C16.9406 19.5052 16.0031 18.5287 16.0031 17.3568C16.0031 16.224 16.9406 15.2865 18.0734 15.2865C19.2453 15.2865 20.1828 16.224 20.1828 17.3568C20.1828 18.5287 19.2453 19.5052 18.0734 19.5052ZM33.464 32.7474H29.8703V27.0834C29.8703 25.7162 29.8312 23.9974 27.9562 23.9974C26.0812 23.9974 25.8078 25.4427 25.8078 26.9662V32.7474H22.1749V21.0677H25.6515V22.6693H25.6906C26.1984 21.7709 27.3703 20.7943 29.1281 20.7943C32.7999 20.7943 33.5031 23.2162 33.5031 26.3412V32.7474H33.464Z" fill="white"/>
</svg>
