<svg width="49" height="48" viewBox="0 0 49 48" fill="none" xmlns="http://www.w3.org/2000/svg">
<circle cx="24.5" cy="24" r="24" fill="black"/>
<path d="M34.5004 28.92V31.92C34.5016 32.1985 34.4445 32.4741 34.3329 32.7293C34.2214 32.9845 34.0577 33.2136 33.8525 33.4018C33.6473 33.5901 33.405 33.7335 33.1412 33.8227C32.8773 33.9119 32.5978 33.945 32.3204 33.92C29.2433 33.5856 26.2874 32.5341 23.6904 30.85C21.2742 29.3146 19.2258 27.2661 17.6904 24.85C16.0004 22.2412 14.9487 19.271 14.6204 16.18C14.5954 15.9034 14.6283 15.6247 14.7169 15.3616C14.8055 15.0985 14.948 14.8567 15.1352 14.6516C15.3224 14.4465 15.5502 14.2827 15.8042 14.1705C16.0582 14.0583 16.3328 14.0002 16.6104 14H19.6104C20.0957 13.9952 20.5662 14.1671 20.9342 14.4835C21.3022 14.8 21.5425 15.2394 21.6104 15.72C21.737 16.68 21.9719 17.6227 22.3104 18.53C22.445 18.8879 22.4741 19.2769 22.3943 19.6509C22.3146 20.0248 22.1293 20.3681 21.8604 20.64L20.5904 21.91C22.014 24.4135 24.0869 26.4864 26.5904 27.91L27.8604 26.64C28.1323 26.3711 28.4756 26.1858 28.8495 26.1061C29.2235 26.0263 29.6125 26.0554 29.9704 26.19C30.8777 26.5285 31.8204 26.7634 32.7804 26.89C33.2662 26.9585 33.7098 27.2032 34.027 27.5775C34.3441 27.9518 34.5126 28.4296 34.5004 28.92Z" stroke="white" stroke-width="1.5" stroke-linecap="round" stroke-linejoin="round"/>
</svg>
