<svg width="48" height="49" viewBox="0 0 48 49" fill="none" xmlns="http://www.w3.org/2000/svg">
<rect x="0.5" y="1.08008" width="47" height="47" rx="23.5" stroke="white"/>
<path d="M33.1669 22.6717C33.2081 21.4789 32.9472 20.2951 32.4085 19.2301C32.043 18.7931 31.5358 18.4982 30.9752 18.3967C28.6565 18.1863 26.3281 18.1001 24.0002 18.1384C21.6807 18.0984 19.3608 18.1818 17.0502 18.3884C16.5934 18.4715 16.1706 18.6858 15.8335 19.0051C15.0835 19.6967 15.0002 20.8801 14.9169 21.8801C14.7959 23.678 14.7959 25.4821 14.9169 27.2801C14.941 27.8429 15.0248 28.4016 15.1669 28.9467C15.2673 29.3676 15.4706 29.757 15.7585 30.0801C16.0979 30.4163 16.5305 30.6427 17.0002 30.7301C18.7968 30.9518 20.607 31.0437 22.4169 31.0051C25.3335 31.0467 27.8919 31.0051 30.9169 30.7717C31.3981 30.6898 31.8428 30.463 32.1919 30.1217C32.4252 29.8883 32.5994 29.6026 32.7002 29.2884C32.9982 28.3739 33.1446 27.4168 33.1335 26.4551C33.1669 25.9884 33.1669 23.1717 33.1669 22.6717ZM22.1169 26.9551V21.7967L27.0502 24.3884C25.6669 25.1551 23.8419 26.0217 22.1169 26.9551Z" fill="white"/>
</svg>
