<svg width="49" height="49" viewBox="0 0 49 49" fill="none" xmlns="http://www.w3.org/2000/svg">
<circle cx="24.5" cy="24.6617" r="24" fill="black"/>
<path d="M33.6669 23.0917C33.7081 21.8989 33.4472 20.715 32.9085 19.65C32.543 19.213 32.0358 18.9181 31.4752 18.8167C29.1565 18.6063 26.8281 18.52 24.5002 18.5583C22.1807 18.5183 19.8608 18.6017 17.5502 18.8083C17.0934 18.8914 16.6706 19.1057 16.3335 19.425C15.5835 20.1167 15.5002 21.3 15.4169 22.3C15.2959 24.098 15.2959 25.902 15.4169 27.7C15.441 28.2628 15.5248 28.8215 15.6669 29.3667C15.7673 29.7875 15.9706 30.1769 16.2585 30.5C16.5979 30.8362 17.0305 31.0627 17.5002 31.15C19.2968 31.3717 21.107 31.4637 22.9169 31.425C25.8335 31.4667 28.3919 31.425 31.4169 31.1917C31.8981 31.1097 32.3428 30.8829 32.6919 30.5417C32.9252 30.3082 33.0994 30.0226 33.2002 29.7083C33.4982 28.7938 33.6446 27.8367 33.6335 26.875C33.6669 26.4083 33.6669 23.5917 33.6669 23.0917ZM22.6169 27.375V22.2167L27.5502 24.8083C26.1669 25.575 24.3419 26.4417 22.6169 27.375Z" fill="white"/>
</svg>
